solid OpenSCAD_Model
  facet normal 0.986361 0.164595 0
    outer loop
      vertex 19 0 5
      vertex 17.9705 6.16929 0
      vertex 17.9705 6.16929 5
    endloop
  endfacet
  facet normal 0.986361 0.164595 0
    outer loop
      vertex 17.9705 6.16929 0
      vertex 19 0 5
      vertex 19 0 0
    endloop
  endfacet
  facet normal -1 0 0
    outer loop
      vertex -18.7409 -3.1273 0
      vertex -18.7409 3.1273 5
      vertex -18.7409 3.1273 0
    endloop
  endfacet
  facet normal -1 -0 0
    outer loop
      vertex -18.7409 3.1273 5
      vertex -18.7409 -3.1273 0
      vertex -18.7409 -3.1273 5
    endloop
  endfacet
  facet normal 0.0825791 0.996585 -0
    outer loop
      vertex 4.66422 18.4186 0
      vertex 3.6626 18.5016 5
      vertex 4.66422 18.4186 5
    endloop
  endfacet
  facet normal 0.0825791 0.996585 -1.61286e-08
    outer loop
      vertex 3.6626 18.5016 5
      vertex 4.66422 18.4186 0
      vertex 2.60622 18.5891 5
    endloop
  endfacet
  facet normal 0.0825791 0.996585 -2.98017e-09
    outer loop
      vertex -1.56901 18.9351 0
      vertex 2.60622 18.5891 5
      vertex 4.66422 18.4186 0
    endloop
  endfacet
  facet normal 0.0825791 0.996585 0
    outer loop
      vertex 2.60622 18.5891 5
      vertex -1.56901 18.9351 0
      vertex -1.56901 18.9351 5
    endloop
  endfacet
  facet normal 0.0825791 -0.996585 0
    outer loop
      vertex -1.56901 -18.9351 0
      vertex 2.60622 -18.5891 5
      vertex -1.56901 -18.9351 5
    endloop
  endfacet
  facet normal 0.0825791 -0.996585 -2.98017e-09
    outer loop
      vertex 4.66422 -18.4186 0
      vertex 2.60622 -18.5891 5
      vertex -1.56901 -18.9351 0
    endloop
  endfacet
  facet normal 0.0825791 -0.996585 -1.61286e-08
    outer loop
      vertex 2.60622 -18.5891 5
      vertex 4.66422 -18.4186 0
      vertex 3.6626 -18.5016 5
    endloop
  endfacet
  facet normal 0.0825791 -0.996585 0
    outer loop
      vertex 3.6626 -18.5016 5
      vertex 4.66422 -18.4186 0
      vertex 4.66422 -18.4186 5
    endloop
  endfacet
  facet normal 0.401696 -0.915773 0
    outer loop
      vertex 4.66422 -18.4186 0
      vertex 10.392 -15.9062 5
      vertex 4.66422 -18.4186 5
    endloop
  endfacet
  facet normal 0.401696 -0.915773 0
    outer loop
      vertex 10.392 -15.9062 5
      vertex 4.66422 -18.4186 0
      vertex 10.392 -15.9062 0
    endloop
  endfacet
  facet normal 0.677282 0.735724 -0
    outer loop
      vertex 14.9937 11.67 0
      vertex 14.6309 12.004 5
      vertex 14.9937 11.67 5
    endloop
  endfacet
  facet normal 0.677282 0.735724 -1.79596e-09
    outer loop
      vertex 14.6309 12.004 5
      vertex 14.9937 11.67 0
      vertex 14.15 12.4467 5
    endloop
  endfacet
  facet normal 0.677282 0.735724 -4.78921e-08
    outer loop
      vertex 10.392 15.9062 0
      vertex 14.15 12.4467 5
      vertex 14.9937 11.67 0
    endloop
  endfacet
  facet normal 0.677281 0.735724 0
    outer loop
      vertex 14.15 12.4467 5
      vertex 10.392 15.9062 0
      vertex 10.392 15.9062 5
    endloop
  endfacet
  facet normal 0.879474 0.475947 0
    outer loop
      vertex 17.9705 6.16929 5
      vertex 14.9937 11.67 0
      vertex 14.9937 11.67 5
    endloop
  endfacet
  facet normal 0.879474 0.475947 0
    outer loop
      vertex 14.9937 11.67 0
      vertex 17.9705 6.16929 5
      vertex 17.9705 6.16929 0
    endloop
  endfacet
  facet normal 0.401696 0.915773 -0
    outer loop
      vertex 10.392 15.9062 0
      vertex 4.66422 18.4186 5
      vertex 10.392 15.9062 5
    endloop
  endfacet
  facet normal 0.401696 0.915773 0
    outer loop
      vertex 4.66422 18.4186 5
      vertex 10.392 15.9062 0
      vertex 4.66422 18.4186 0
    endloop
  endfacet
  facet normal -0.78914 0.614213 0
    outer loop
      vertex -16.71 9.043 0
      vertex -12.8683 13.9788 5
      vertex -12.8683 13.9788 0
    endloop
  endfacet
  facet normal -0.78914 0.614213 0
    outer loop
      vertex -12.8683 13.9788 5
      vertex -16.71 9.043 0
      vertex -16.71 9.043 5
    endloop
  endfacet
  facet normal -0.945817 0.324699 0
    outer loop
      vertex -16.71 9.043 0
      vertex -17.3962 7.04415 5
      vertex -16.71 9.043 5
    endloop
  endfacet
  facet normal -0.945817 0.3247 2.82468e-07
    outer loop
      vertex -16.71 9.043 0
      vertex -17.8542 5.71018 5
      vertex -17.3962 7.04415 5
    endloop
  endfacet
  facet normal -0.945817 0.324699 -2.71724e-07
    outer loop
      vertex -18.7409 3.1273 0
      vertex -17.8542 5.71018 5
      vertex -16.71 9.043 0
    endloop
  endfacet
  facet normal -0.945817 0.324699 0
    outer loop
      vertex -17.8542 5.71018 5
      vertex -18.7409 3.1273 0
      vertex -18.7409 3.1273 5
    endloop
  endfacet
  facet normal -0 -0 -1
    outer loop
      vertex 14.5548 12.213 5
      vertex 14.6309 12.004 5
      vertex 14.15 12.4467 5
    endloop
  endfacet
  facet normal 0 0 -1
    outer loop
      vertex -17.8542 -5.71018 5
      vertex -17.3962 -7.04415 5
      vertex -17.8542 -6.49838 5
    endloop
  endfacet
  facet normal 0 -0 -1
    outer loop
      vertex -9.5 16.4545 5
      vertex -8.92333 16.5562 5
      vertex -10.0109 15.8456 5
    endloop
  endfacet
  facet normal 0 -0 -1
    outer loop
      vertex 3.29931 18.7113 5
      vertex 3.6626 18.5016 5
      vertex 2.60622 18.5891 5
    endloop
  endfacet
  facet normal 0 0 1
    outer loop
      vertex 14.6309 -12.004 5
      vertex 17.9705 -6.16929 5
      vertex 19 0 5
    endloop
  endfacet
  facet normal 0 0 1
    outer loop
      vertex 17.9705 -6.16929 5
      vertex 14.6309 -12.004 5
      vertex 14.9937 -11.67 5
    endloop
  endfacet
  facet normal 0 0 1
    outer loop
      vertex 14.6309 12.004 5
      vertex 17.9705 6.16929 5
      vertex 14.9937 11.67 5
    endloop
  endfacet
  facet normal 0 0 1
    outer loop
      vertex 17.9705 6.16929 5
      vertex 14.6309 12.004 5
      vertex 19 0 5
    endloop
  endfacet
  facet normal 0 0 -1
    outer loop
      vertex -17.8542 6.49838 5
      vertex -17.3962 7.04415 5
      vertex -17.8542 5.71018 5
    endloop
  endfacet
  facet normal 0 0 -1
    outer loop
      vertex 14.6309 -12.004 5
      vertex 14.5548 -12.213 5
      vertex 14.15 -12.4467 5
    endloop
  endfacet
  facet normal 0 0 -1
    outer loop
      vertex -8.92333 -16.5562 5
      vertex -9.5 -16.4545 5
      vertex -10.0109 -15.8456 5
    endloop
  endfacet
  facet normal 0 0 -1
    outer loop
      vertex 3.6626 -18.5016 5
      vertex 3.29931 -18.7113 5
      vertex 2.60622 -18.5891 5
    endloop
  endfacet
  facet normal -0 0 1
    outer loop
      vertex -18.7409 3.1273 5
      vertex -17.8542 -5.71018 5
      vertex -17.8542 5.71018 5
    endloop
  endfacet
  facet normal 0 0 1
    outer loop
      vertex -17.8542 -5.71018 5
      vertex -18.7409 3.1273 5
      vertex -18.7409 -3.1273 5
    endloop
  endfacet
  facet normal 0 0 1
    outer loop
      vertex -8.92333 -16.5562 5
      vertex -1.56901 -18.9351 5
      vertex 2.60622 -18.5891 5
    endloop
  endfacet
  facet normal 0 0 1
    outer loop
      vertex -1.56901 -18.9351 5
      vertex -8.92333 -16.5562 5
      vertex -7.63221 -17.3997 5
    endloop
  endfacet
  facet normal 0 0 1
    outer loop
      vertex -8.92333 16.5562 5
      vertex -1.56901 18.9351 5
      vertex -7.63221 17.3997 5
    endloop
  endfacet
  facet normal 0 0 1
    outer loop
      vertex -1.56901 18.9351 5
      vertex -8.92333 16.5562 5
      vertex 2.60622 18.5891 5
    endloop
  endfacet
  facet normal 0 0 1
    outer loop
      vertex -17.3962 7.04415 5
      vertex -12.8683 13.9788 5
      vertex -16.71 9.043 5
    endloop
  endfacet
  facet normal -0 0 1
    outer loop
      vertex -12.8683 13.9788 5
      vertex -17.3962 7.04415 5
      vertex -10.0109 15.8456 5
    endloop
  endfacet
  facet normal 0 0 1
    outer loop
      vertex 3.6626 -18.5016 5
      vertex 10.392 -15.9062 5
      vertex 14.15 -12.4467 5
    endloop
  endfacet
  facet normal 0 0 1
    outer loop
      vertex 10.392 -15.9062 5
      vertex 3.6626 -18.5016 5
      vertex 4.66422 -18.4186 5
    endloop
  endfacet
  facet normal 0 0 1
    outer loop
      vertex 3.6626 18.5016 5
      vertex 10.392 15.9062 5
      vertex 4.66422 18.4186 5
    endloop
  endfacet
  facet normal 0 0 1
    outer loop
      vertex 10.392 15.9062 5
      vertex 3.6626 18.5016 5
      vertex 14.15 12.4467 5
    endloop
  endfacet
  facet normal 0 0 1
    outer loop
      vertex -17.3962 -7.04415 5
      vertex -12.8683 -13.9788 5
      vertex -10.0109 -15.8456 5
    endloop
  endfacet
  facet normal 0 0 1
    outer loop
      vertex -12.8683 -13.9788 5
      vertex -17.3962 -7.04415 5
      vertex -16.71 -9.043 5
    endloop
  endfacet
  facet normal -0.546948 0.837166 0
    outer loop
      vertex -7.63221 17.3997 0
      vertex -8.92333 16.5562 5
      vertex -7.63221 17.3997 5
    endloop
  endfacet
  facet normal -0.546948 0.837167 2.97437e-07
    outer loop
      vertex -8.92333 16.5562 5
      vertex -7.63221 17.3997 0
      vertex -10.0109 15.8456 5
    endloop
  endfacet
  facet normal -0.546948 0.837166 -1.44985e-08
    outer loop
      vertex -12.8683 13.9788 0
      vertex -10.0109 15.8456 5
      vertex -7.63221 17.3997 0
    endloop
  endfacet
  facet normal -0.546948 0.837166 0
    outer loop
      vertex -10.0109 15.8456 5
      vertex -12.8683 13.9788 0
      vertex -12.8683 13.9788 5
    endloop
  endfacet
  facet normal 0 0 -1
    outer loop
      vertex 16.6285 -3.5345 0
      vertex 19 0 0
      vertex 17.9705 -6.16929 0
    endloop
  endfacet
  facet normal 0 0 -1
    outer loop
      vertex 16.6285 3.5345 0
      vertex 19 0 0
      vertex 17 0 0
    endloop
  endfacet
  facet normal -0 0 -1
    outer loop
      vertex 19 0 0
      vertex 16.6285 -3.5345 0
      vertex 17 0 0
    endloop
  endfacet
  facet normal -0 0 -1
    outer loop
      vertex 17.9705 -6.16929 0
      vertex 15.5303 -6.91452 0
      vertex 16.6285 -3.5345 0
    endloop
  endfacet
  facet normal 0 0 -1
    outer loop
      vertex 14.9937 -11.67 0
      vertex 15.5303 -6.91452 0
      vertex 17.9705 -6.16929 0
    endloop
  endfacet
  facet normal 0 0 -1
    outer loop
      vertex 14.9937 -11.67 0
      vertex 13.7533 -9.99235 0
      vertex 15.5303 -6.91452 0
    endloop
  endfacet
  facet normal -0 0 -1
    outer loop
      vertex 14.9937 -11.67 0
      vertex 11.3752 -12.6335 0
      vertex 13.7533 -9.99235 0
    endloop
  endfacet
  facet normal 0 0 -1
    outer loop
      vertex 10.392 -15.9062 0
      vertex 11.3752 -12.6335 0
      vertex 14.9937 -11.67 0
    endloop
  endfacet
  facet normal 0 0 -1
    outer loop
      vertex 10.392 -15.9062 0
      vertex 8.5 -14.7224 0
      vertex 11.3752 -12.6335 0
    endloop
  endfacet
  facet normal -0 0 -1
    outer loop
      vertex 10.392 -15.9062 0
      vertex 5.25329 -16.168 0
      vertex 8.5 -14.7224 0
    endloop
  endfacet
  facet normal 0 0 -1
    outer loop
      vertex 4.66422 -18.4186 0
      vertex 5.25329 -16.168 0
      vertex 10.392 -15.9062 0
    endloop
  endfacet
  facet normal 0 0 -1
    outer loop
      vertex 4.66422 -18.4186 0
      vertex 1.77698 -16.9069 0
      vertex 5.25329 -16.168 0
    endloop
  endfacet
  facet normal 0 0 -1
    outer loop
      vertex -1.56901 -18.9351 0
      vertex 1.77698 -16.9069 0
      vertex 4.66422 -18.4186 0
    endloop
  endfacet
  facet normal 0 0 -1
    outer loop
      vertex -1.56901 -18.9351 0
      vertex -1.77698 -16.9069 0
      vertex 1.77698 -16.9069 0
    endloop
  endfacet
  facet normal 0 0 -1
    outer loop
      vertex -1.56901 -18.9351 0
      vertex -5.25329 -16.168 0
      vertex -1.77698 -16.9069 0
    endloop
  endfacet
  facet normal 0 0 -1
    outer loop
      vertex -7.63221 -17.3997 0
      vertex -5.25329 -16.168 0
      vertex -1.56901 -18.9351 0
    endloop
  endfacet
  facet normal 0 0 -1
    outer loop
      vertex -7.63221 -17.3997 0
      vertex -8.5 -14.7224 0
      vertex -5.25329 -16.168 0
    endloop
  endfacet
  facet normal 0 0 -1
    outer loop
      vertex -12.8683 -13.9788 0
      vertex -8.5 -14.7224 0
      vertex -7.63221 -17.3997 0
    endloop
  endfacet
  facet normal 0 0 -1
    outer loop
      vertex -8.5 -14.7224 0
      vertex -12.8683 -13.9788 0
      vertex -11.3752 -12.6335 0
    endloop
  endfacet
  facet normal 0 0 -1
    outer loop
      vertex -12.8683 -13.9788 0
      vertex -13.7533 -9.99235 0
      vertex -11.3752 -12.6335 0
    endloop
  endfacet
  facet normal 0 0 -1
    outer loop
      vertex -16.71 -9.043 0
      vertex -13.7533 -9.99235 0
      vertex -12.8683 -13.9788 0
    endloop
  endfacet
  facet normal 0 0 -1
    outer loop
      vertex -13.7533 -9.99235 0
      vertex -16.71 -9.043 0
      vertex -15.5303 -6.91452 0
    endloop
  endfacet
  facet normal 0 0 -1
    outer loop
      vertex -18.7409 -3.1273 0
      vertex -15.5303 -6.91452 0
      vertex -16.71 -9.043 0
    endloop
  endfacet
  facet normal 0 0 -1
    outer loop
      vertex -15.5303 -6.91452 0
      vertex -18.7409 -3.1273 0
      vertex -16.6285 -3.5345 0
    endloop
  endfacet
  facet normal 0 0 -1
    outer loop
      vertex -16.6285 -3.5345 0
      vertex -18.7409 -3.1273 0
      vertex -17 0 0
    endloop
  endfacet
  facet normal 0 0 -1
    outer loop
      vertex 19 0 0
      vertex 16.6285 3.5345 0
      vertex 17.9705 6.16929 0
    endloop
  endfacet
  facet normal 0 0 -1
    outer loop
      vertex 15.5303 6.91452 0
      vertex 17.9705 6.16929 0
      vertex 16.6285 3.5345 0
    endloop
  endfacet
  facet normal 0 0 -1
    outer loop
      vertex 15.5303 6.91452 0
      vertex 14.9937 11.67 0
      vertex 17.9705 6.16929 0
    endloop
  endfacet
  facet normal 0 0 -1
    outer loop
      vertex 13.7533 9.99235 0
      vertex 14.9937 11.67 0
      vertex 15.5303 6.91452 0
    endloop
  endfacet
  facet normal 0 0 -1
    outer loop
      vertex 11.3752 12.6335 0
      vertex 14.9937 11.67 0
      vertex 13.7533 9.99235 0
    endloop
  endfacet
  facet normal 0 0 -1
    outer loop
      vertex 11.3752 12.6335 0
      vertex 10.392 15.9062 0
      vertex 14.9937 11.67 0
    endloop
  endfacet
  facet normal 0 0 -1
    outer loop
      vertex 8.5 14.7224 0
      vertex 10.392 15.9062 0
      vertex 11.3752 12.6335 0
    endloop
  endfacet
  facet normal 0 0 -1
    outer loop
      vertex 5.25329 16.168 0
      vertex 10.392 15.9062 0
      vertex 8.5 14.7224 0
    endloop
  endfacet
  facet normal 0 0 -1
    outer loop
      vertex 5.25329 16.168 0
      vertex 4.66422 18.4186 0
      vertex 10.392 15.9062 0
    endloop
  endfacet
  facet normal 0 0 -1
    outer loop
      vertex 1.77698 16.9069 0
      vertex 4.66422 18.4186 0
      vertex 5.25329 16.168 0
    endloop
  endfacet
  facet normal 0 0 -1
    outer loop
      vertex 1.77698 16.9069 0
      vertex -1.56901 18.9351 0
      vertex 4.66422 18.4186 0
    endloop
  endfacet
  facet normal 0 0 -1
    outer loop
      vertex -1.77698 16.9069 0
      vertex -1.56901 18.9351 0
      vertex 1.77698 16.9069 0
    endloop
  endfacet
  facet normal 0 0 -1
    outer loop
      vertex -5.25329 16.168 0
      vertex -1.56901 18.9351 0
      vertex -1.77698 16.9069 0
    endloop
  endfacet
  facet normal 0 0 -1
    outer loop
      vertex -5.25329 16.168 0
      vertex -7.63221 17.3997 0
      vertex -1.56901 18.9351 0
    endloop
  endfacet
  facet normal 0 0 -1
    outer loop
      vertex -8.5 14.7224 0
      vertex -7.63221 17.3997 0
      vertex -5.25329 16.168 0
    endloop
  endfacet
  facet normal 0 0 -1
    outer loop
      vertex -12.8683 13.9788 0
      vertex -8.5 14.7224 0
      vertex -11.3752 12.6335 0
    endloop
  endfacet
  facet normal -0 0 -1
    outer loop
      vertex -8.5 14.7224 0
      vertex -12.8683 13.9788 0
      vertex -7.63221 17.3997 0
    endloop
  endfacet
  facet normal 0 0 -1
    outer loop
      vertex -13.7533 9.99235 0
      vertex -12.8683 13.9788 0
      vertex -11.3752 12.6335 0
    endloop
  endfacet
  facet normal 0 0 -1
    outer loop
      vertex -16.71 9.043 0
      vertex -13.7533 9.99235 0
      vertex -15.5303 6.91452 0
    endloop
  endfacet
  facet normal -0 0 -1
    outer loop
      vertex -13.7533 9.99235 0
      vertex -16.71 9.043 0
      vertex -12.8683 13.9788 0
    endloop
  endfacet
  facet normal 0 0 -1
    outer loop
      vertex -18.7409 3.1273 0
      vertex -15.5303 6.91452 0
      vertex -16.6285 3.5345 0
    endloop
  endfacet
  facet normal 0 0 -1
    outer loop
      vertex -18.7409 3.1273 0
      vertex -16.6285 3.5345 0
      vertex -17 0 0
    endloop
  endfacet
  facet normal 0 0 -1
    outer loop
      vertex -18.7409 3.1273 0
      vertex -17 0 0
      vertex -18.7409 -3.1273 0
    endloop
  endfacet
  facet normal -0 0 -1
    outer loop
      vertex -15.5303 6.91452 0
      vertex -18.7409 3.1273 0
      vertex -16.71 9.043 0
    endloop
  endfacet
  facet normal -0.245485 0.9694 0
    outer loop
      vertex -1.56901 18.9351 0
      vertex -7.63221 17.3997 5
      vertex -1.56901 18.9351 5
    endloop
  endfacet
  facet normal -0.245485 0.9694 0
    outer loop
      vertex -7.63221 17.3997 5
      vertex -1.56901 18.9351 0
      vertex -7.63221 17.3997 0
    endloop
  endfacet
  facet normal 0.986361 -0.164595 0
    outer loop
      vertex 17.9705 -6.16929 5
      vertex 19 0 0
      vertex 19 0 5
    endloop
  endfacet
  facet normal 0.986361 -0.164595 0
    outer loop
      vertex 19 0 0
      vertex 17.9705 -6.16929 5
      vertex 17.9705 -6.16929 0
    endloop
  endfacet
  facet normal 0.677281 -0.735724 0
    outer loop
      vertex 10.392 -15.9062 0
      vertex 14.15 -12.4467 5
      vertex 10.392 -15.9062 5
    endloop
  endfacet
  facet normal 0.677282 -0.735724 -4.78921e-08
    outer loop
      vertex 14.9937 -11.67 0
      vertex 14.15 -12.4467 5
      vertex 10.392 -15.9062 0
    endloop
  endfacet
  facet normal 0.677282 -0.735724 -1.79596e-09
    outer loop
      vertex 14.15 -12.4467 5
      vertex 14.9937 -11.67 0
      vertex 14.6309 -12.004 5
    endloop
  endfacet
  facet normal 0.677282 -0.735724 0
    outer loop
      vertex 14.6309 -12.004 5
      vertex 14.9937 -11.67 0
      vertex 14.9937 -11.67 5
    endloop
  endfacet
  facet normal 0.879474 -0.475947 0
    outer loop
      vertex 14.9937 -11.67 5
      vertex 17.9705 -6.16929 0
      vertex 17.9705 -6.16929 5
    endloop
  endfacet
  facet normal 0.879474 -0.475947 0
    outer loop
      vertex 17.9705 -6.16929 0
      vertex 14.9937 -11.67 5
      vertex 14.9937 -11.67 0
    endloop
  endfacet
  facet normal -0.78914 -0.614213 0
    outer loop
      vertex -12.8683 -13.9788 0
      vertex -16.71 -9.043 5
      vertex -16.71 -9.043 0
    endloop
  endfacet
  facet normal -0.78914 -0.614213 0
    outer loop
      vertex -16.71 -9.043 5
      vertex -12.8683 -13.9788 0
      vertex -12.8683 -13.9788 5
    endloop
  endfacet
  facet normal -0.945817 -0.324699 0
    outer loop
      vertex -18.7409 -3.1273 0
      vertex -17.8542 -5.71018 5
      vertex -18.7409 -3.1273 5
    endloop
  endfacet
  facet normal -0.945817 -0.324699 -2.71724e-07
    outer loop
      vertex -16.71 -9.043 0
      vertex -17.8542 -5.71018 5
      vertex -18.7409 -3.1273 0
    endloop
  endfacet
  facet normal -0.945817 -0.3247 2.82468e-07
    outer loop
      vertex -17.8542 -5.71018 5
      vertex -16.71 -9.043 0
      vertex -17.3962 -7.04415 5
    endloop
  endfacet
  facet normal -0.945817 -0.324699 0
    outer loop
      vertex -17.3962 -7.04415 5
      vertex -16.71 -9.043 0
      vertex -16.71 -9.043 5
    endloop
  endfacet
  facet normal -0.245485 -0.9694 0
    outer loop
      vertex -7.63221 -17.3997 0
      vertex -1.56901 -18.9351 5
      vertex -7.63221 -17.3997 5
    endloop
  endfacet
  facet normal -0.245485 -0.9694 -0
    outer loop
      vertex -1.56901 -18.9351 5
      vertex -7.63221 -17.3997 0
      vertex -1.56901 -18.9351 0
    endloop
  endfacet
  facet normal -0.546948 -0.837166 0
    outer loop
      vertex -12.8683 -13.9788 0
      vertex -10.0109 -15.8456 5
      vertex -12.8683 -13.9788 5
    endloop
  endfacet
  facet normal -0.546948 -0.837166 -6.34658e-08
    outer loop
      vertex -7.63221 -17.3997 0
      vertex -10.0109 -15.8456 5
      vertex -12.8683 -13.9788 0
    endloop
  endfacet
  facet normal -0.546948 -0.837166 -1.1474e-07
    outer loop
      vertex -10.0109 -15.8456 5
      vertex -7.63221 -17.3997 0
      vertex -8.92333 -16.5562 5
    endloop
  endfacet
  facet normal -0.546948 -0.837167 0
    outer loop
      vertex -8.92333 -16.5562 5
      vertex -7.63221 -17.3997 0
      vertex -7.63221 -17.3997 5
    endloop
  endfacet
  facet normal -0.994522 -0.104528 0
    outer loop
      vertex 17 0 0
      vertex 16.6285 3.5345 25
      vertex 16.6285 3.5345 0
    endloop
  endfacet
  facet normal -0.994522 -0.104528 0
    outer loop
      vertex 16.6285 3.5345 25
      vertex 17 0 0
      vertex 17 0 25
    endloop
  endfacet
  facet normal 0.994522 -0.104528 0
    outer loop
      vertex -17 0 25
      vertex -16.6285 3.5345 0
      vertex -16.6285 3.5345 25
    endloop
  endfacet
  facet normal 0.994522 -0.104528 0
    outer loop
      vertex -16.6285 3.5345 0
      vertex -17 0 25
      vertex -17 0 0
    endloop
  endfacet
  facet normal 0 -1 0
    outer loop
      vertex -1.77698 16.9069 0
      vertex 1.77698 16.9069 25
      vertex -1.77698 16.9069 25
    endloop
  endfacet
  facet normal 0 -1 -0
    outer loop
      vertex 1.77698 16.9069 25
      vertex -1.77698 16.9069 0
      vertex 1.77698 16.9069 0
    endloop
  endfacet
  facet normal 0 1 -0
    outer loop
      vertex 1.77698 -16.9069 0
      vertex -1.77698 -16.9069 25
      vertex 1.77698 -16.9069 25
    endloop
  endfacet
  facet normal 0 1 0
    outer loop
      vertex -1.77698 -16.9069 25
      vertex 1.77698 -16.9069 0
      vertex -1.77698 -16.9069 0
    endloop
  endfacet
  facet normal -0.743145 -0.66913 0
    outer loop
      vertex 13.7533 9.99235 0
      vertex 11.3752 12.6335 25
      vertex 11.3752 12.6335 0
    endloop
  endfacet
  facet normal -0.743145 -0.66913 0
    outer loop
      vertex 11.3752 12.6335 25
      vertex 13.7533 9.99235 0
      vertex 13.7533 9.99235 25
    endloop
  endfacet
  facet normal -0.951056 -0.309017 0
    outer loop
      vertex 16.6285 3.5345 0
      vertex 15.5303 6.91452 25
      vertex 15.5303 6.91452 0
    endloop
  endfacet
  facet normal -0.951056 -0.309017 0
    outer loop
      vertex 15.5303 6.91452 25
      vertex 16.6285 3.5345 0
      vertex 16.6285 3.5345 25
    endloop
  endfacet
  facet normal 0.587785 -0.809017 0
    outer loop
      vertex -11.3752 12.6335 0
      vertex -8.5 14.7224 25
      vertex -11.3752 12.6335 25
    endloop
  endfacet
  facet normal 0.587785 -0.809017 0
    outer loop
      vertex -8.5 14.7224 25
      vertex -11.3752 12.6335 0
      vertex -8.5 14.7224 0
    endloop
  endfacet
  facet normal 0.207911 -0.978148 0
    outer loop
      vertex -5.25329 16.168 0
      vertex -1.77698 16.9069 25
      vertex -5.25329 16.168 25
    endloop
  endfacet
  facet normal 0.207911 -0.978148 0
    outer loop
      vertex -1.77698 16.9069 25
      vertex -5.25329 16.168 0
      vertex -1.77698 16.9069 0
    endloop
  endfacet
  facet normal -0.866025 -0.5 0
    outer loop
      vertex 15.5303 6.91452 0
      vertex 13.7533 9.99235 25
      vertex 13.7533 9.99235 0
    endloop
  endfacet
  facet normal -0.866025 -0.5 0
    outer loop
      vertex 13.7533 9.99235 25
      vertex 15.5303 6.91452 0
      vertex 15.5303 6.91452 25
    endloop
  endfacet
  facet normal -0.406737 -0.913545 0
    outer loop
      vertex 5.25329 16.168 0
      vertex 8.5 14.7224 25
      vertex 5.25329 16.168 25
    endloop
  endfacet
  facet normal -0.406737 -0.913545 -0
    outer loop
      vertex 8.5 14.7224 25
      vertex 5.25329 16.168 0
      vertex 8.5 14.7224 0
    endloop
  endfacet
  facet normal -0.207911 -0.978148 0
    outer loop
      vertex 1.77698 16.9069 0
      vertex 5.25329 16.168 25
      vertex 1.77698 16.9069 25
    endloop
  endfacet
  facet normal -0.207911 -0.978148 -0
    outer loop
      vertex 5.25329 16.168 25
      vertex 1.77698 16.9069 0
      vertex 5.25329 16.168 0
    endloop
  endfacet
  facet normal -0.587785 -0.809017 0
    outer loop
      vertex 8.5 14.7224 0
      vertex 11.3752 12.6335 25
      vertex 8.5 14.7224 25
    endloop
  endfacet
  facet normal -0.587785 -0.809017 -0
    outer loop
      vertex 11.3752 12.6335 25
      vertex 8.5 14.7224 0
      vertex 11.3752 12.6335 0
    endloop
  endfacet
  facet normal 0.866025 -0.5 0
    outer loop
      vertex -15.5303 6.91452 25
      vertex -13.7533 9.99235 0
      vertex -13.7533 9.99235 25
    endloop
  endfacet
  facet normal 0.866025 -0.5 0
    outer loop
      vertex -13.7533 9.99235 0
      vertex -15.5303 6.91452 25
      vertex -15.5303 6.91452 0
    endloop
  endfacet
  facet normal 0.743145 -0.66913 0
    outer loop
      vertex -13.7533 9.99235 25
      vertex -11.3752 12.6335 0
      vertex -11.3752 12.6335 25
    endloop
  endfacet
  facet normal 0.743145 -0.66913 0
    outer loop
      vertex -11.3752 12.6335 0
      vertex -13.7533 9.99235 25
      vertex -13.7533 9.99235 0
    endloop
  endfacet
  facet normal 0.951056 -0.309017 0
    outer loop
      vertex -16.6285 3.5345 25
      vertex -15.5303 6.91452 0
      vertex -15.5303 6.91452 25
    endloop
  endfacet
  facet normal 0.951056 -0.309017 0
    outer loop
      vertex -15.5303 6.91452 0
      vertex -16.6285 3.5345 25
      vertex -16.6285 3.5345 0
    endloop
  endfacet
  facet normal 0.406737 -0.913545 0
    outer loop
      vertex -8.5 14.7224 0
      vertex -5.25329 16.168 25
      vertex -8.5 14.7224 25
    endloop
  endfacet
  facet normal 0.406737 -0.913545 0
    outer loop
      vertex -5.25329 16.168 25
      vertex -8.5 14.7224 0
      vertex -5.25329 16.168 0
    endloop
  endfacet
  facet normal -0.994522 0.104528 0
    outer loop
      vertex 16.6285 -3.5345 0
      vertex 17 0 25
      vertex 17 0 0
    endloop
  endfacet
  facet normal -0.994522 0.104528 0
    outer loop
      vertex 17 0 25
      vertex 16.6285 -3.5345 0
      vertex 16.6285 -3.5345 25
    endloop
  endfacet
  facet normal -0.743145 0.66913 0
    outer loop
      vertex 11.3752 -12.6335 0
      vertex 13.7533 -9.99235 25
      vertex 13.7533 -9.99235 0
    endloop
  endfacet
  facet normal -0.743145 0.66913 0
    outer loop
      vertex 13.7533 -9.99235 25
      vertex 11.3752 -12.6335 0
      vertex 11.3752 -12.6335 25
    endloop
  endfacet
  facet normal -0.951056 0.309017 0
    outer loop
      vertex 15.5303 -6.91452 0
      vertex 16.6285 -3.5345 25
      vertex 16.6285 -3.5345 0
    endloop
  endfacet
  facet normal -0.951056 0.309017 0
    outer loop
      vertex 16.6285 -3.5345 25
      vertex 15.5303 -6.91452 0
      vertex 15.5303 -6.91452 25
    endloop
  endfacet
  facet normal -0.866025 0.5 0
    outer loop
      vertex 13.7533 -9.99235 0
      vertex 15.5303 -6.91452 25
      vertex 15.5303 -6.91452 0
    endloop
  endfacet
  facet normal -0.866025 0.5 0
    outer loop
      vertex 15.5303 -6.91452 25
      vertex 13.7533 -9.99235 0
      vertex 13.7533 -9.99235 25
    endloop
  endfacet
  facet normal 0.587785 0.809017 -0
    outer loop
      vertex -8.5 -14.7224 0
      vertex -11.3752 -12.6335 25
      vertex -8.5 -14.7224 25
    endloop
  endfacet
  facet normal 0.587785 0.809017 0
    outer loop
      vertex -11.3752 -12.6335 25
      vertex -8.5 -14.7224 0
      vertex -11.3752 -12.6335 0
    endloop
  endfacet
  facet normal 0.866025 0.5 0
    outer loop
      vertex -13.7533 -9.99235 25
      vertex -15.5303 -6.91452 0
      vertex -15.5303 -6.91452 25
    endloop
  endfacet
  facet normal 0.866025 0.5 0
    outer loop
      vertex -15.5303 -6.91452 0
      vertex -13.7533 -9.99235 25
      vertex -13.7533 -9.99235 0
    endloop
  endfacet
  facet normal -0.587785 0.809017 0
    outer loop
      vertex 11.3752 -12.6335 0
      vertex 8.5 -14.7224 25
      vertex 11.3752 -12.6335 25
    endloop
  endfacet
  facet normal -0.587785 0.809017 0
    outer loop
      vertex 8.5 -14.7224 25
      vertex 11.3752 -12.6335 0
      vertex 8.5 -14.7224 0
    endloop
  endfacet
  facet normal 0.207911 0.978148 -0
    outer loop
      vertex -1.77698 -16.9069 0
      vertex -5.25329 -16.168 25
      vertex -1.77698 -16.9069 25
    endloop
  endfacet
  facet normal 0.207911 0.978148 0
    outer loop
      vertex -5.25329 -16.168 25
      vertex -1.77698 -16.9069 0
      vertex -5.25329 -16.168 0
    endloop
  endfacet
  facet normal 0.406737 0.913545 -0
    outer loop
      vertex -5.25329 -16.168 0
      vertex -8.5 -14.7224 25
      vertex -5.25329 -16.168 25
    endloop
  endfacet
  facet normal 0.406737 0.913545 0
    outer loop
      vertex -8.5 -14.7224 25
      vertex -5.25329 -16.168 0
      vertex -8.5 -14.7224 0
    endloop
  endfacet
  facet normal 0.743145 0.66913 0
    outer loop
      vertex -11.3752 -12.6335 25
      vertex -13.7533 -9.99235 0
      vertex -13.7533 -9.99235 25
    endloop
  endfacet
  facet normal 0.743145 0.66913 0
    outer loop
      vertex -13.7533 -9.99235 0
      vertex -11.3752 -12.6335 25
      vertex -11.3752 -12.6335 0
    endloop
  endfacet
  facet normal 0.951056 0.309017 0
    outer loop
      vertex -15.5303 -6.91452 25
      vertex -16.6285 -3.5345 0
      vertex -16.6285 -3.5345 25
    endloop
  endfacet
  facet normal 0.951056 0.309017 0
    outer loop
      vertex -16.6285 -3.5345 0
      vertex -15.5303 -6.91452 25
      vertex -15.5303 -6.91452 0
    endloop
  endfacet
  facet normal 0.994522 0.104528 0
    outer loop
      vertex -16.6285 -3.5345 25
      vertex -17 0 0
      vertex -17 0 25
    endloop
  endfacet
  facet normal 0.994522 0.104528 0
    outer loop
      vertex -17 0 0
      vertex -16.6285 -3.5345 25
      vertex -16.6285 -3.5345 0
    endloop
  endfacet
  facet normal -0.406737 0.913545 0
    outer loop
      vertex 8.5 -14.7224 0
      vertex 5.25329 -16.168 25
      vertex 8.5 -14.7224 25
    endloop
  endfacet
  facet normal -0.406737 0.913545 0
    outer loop
      vertex 5.25329 -16.168 25
      vertex 8.5 -14.7224 0
      vertex 5.25329 -16.168 0
    endloop
  endfacet
  facet normal -0.207911 0.978148 0
    outer loop
      vertex 5.25329 -16.168 0
      vertex 1.77698 -16.9069 25
      vertex 5.25329 -16.168 25
    endloop
  endfacet
  facet normal -0.207911 0.978148 0
    outer loop
      vertex 1.77698 -16.9069 25
      vertex 5.25329 -16.168 0
      vertex 1.77698 -16.9069 0
    endloop
  endfacet
  facet normal 0.939693 0.34202 0
    outer loop
      vertex 14.6309 12.004 10
      vertex 14.5548 12.213 5
      vertex 14.5548 12.213 10
    endloop
  endfacet
  facet normal 0.939693 0.34202 0
    outer loop
      vertex 14.6309 12.004 10
      vertex 14.6309 12.004 5
      vertex 14.5548 12.213 5
    endloop
  endfacet
  facet normal 0.939693 0.34202 0
    outer loop
      vertex 19 0 10
      vertex 14.6309 12.004 5
      vertex 14.6309 12.004 10
    endloop
  endfacet
  facet normal 0.939693 0.34202 0
    outer loop
      vertex 14.6309 12.004 5
      vertex 19 0 10
      vertex 19 0 5
    endloop
  endfacet
  facet normal -1 0 0
    outer loop
      vertex -17.8542 5.71018 5
      vertex -17.8542 6.49838 10
      vertex -17.8542 6.49838 5
    endloop
  endfacet
  facet normal -1 0 0
    outer loop
      vertex -17.8542 5.71018 5
      vertex -17.8542 5.71018 10
      vertex -17.8542 6.49838 10
    endloop
  endfacet
  facet normal -1 0 0
    outer loop
      vertex -17.8542 -5.71018 5
      vertex -17.8542 5.71018 10
      vertex -17.8542 5.71018 5
    endloop
  endfacet
  facet normal -1 0 0
    outer loop
      vertex -17.8542 -5.71018 5
      vertex -17.8542 -5.71018 10
      vertex -17.8542 5.71018 10
    endloop
  endfacet
  facet normal -1 0 0
    outer loop
      vertex -17.8542 -6.49838 5
      vertex -17.8542 -5.71018 10
      vertex -17.8542 -5.71018 5
    endloop
  endfacet
  facet normal -1 -0 0
    outer loop
      vertex -17.8542 -5.71018 10
      vertex -17.8542 -6.49838 5
      vertex -17.8542 -6.49838 10
    endloop
  endfacet
  facet normal -0.173646 0.984808 0
    outer loop
      vertex 2.60622 18.5891 5
      vertex 2.60622 18.5891 10
      vertex 3.29931 18.7113 10
    endloop
  endfacet
  facet normal -0.173648 0.984808 0
    outer loop
      vertex 2.60622 18.5891 10
      vertex 2.60622 18.5891 5
      vertex -8.92333 16.5562 10
    endloop
  endfacet
  facet normal -0.173646 0.984808 0
    outer loop
      vertex 2.60622 18.5891 5
      vertex 3.29931 18.7113 10
      vertex 3.29931 18.7113 5
    endloop
  endfacet
  facet normal -0.173648 0.984808 0
    outer loop
      vertex -8.92333 16.5562 5
      vertex -8.92333 16.5562 10
      vertex 2.60622 18.5891 5
    endloop
  endfacet
  facet normal -0.173645 0.984808 0
    outer loop
      vertex -8.92333 16.5562 10
      vertex -8.92333 16.5562 5
      vertex -9.5 16.4545 10
    endloop
  endfacet
  facet normal -0.173645 0.984808 0
    outer loop
      vertex -9.5 16.4545 10
      vertex -8.92333 16.5562 5
      vertex -9.5 16.4545 5
    endloop
  endfacet
  facet normal 0.500001 0.866025 -0
    outer loop
      vertex 14.15 12.4467 5
      vertex 14.15 12.4467 10
      vertex 14.5548 12.213 10
    endloop
  endfacet
  facet normal 0.5 0.866025 0
    outer loop
      vertex 14.15 12.4467 10
      vertex 14.15 12.4467 5
      vertex 3.6626 18.5016 10
    endloop
  endfacet
  facet normal 0.500001 0.866025 0
    outer loop
      vertex 14.15 12.4467 5
      vertex 14.5548 12.213 10
      vertex 14.5548 12.213 5
    endloop
  endfacet
  facet normal 0.5 0.866025 -0
    outer loop
      vertex 3.6626 18.5016 5
      vertex 3.6626 18.5016 10
      vertex 14.15 12.4467 5
    endloop
  endfacet
  facet normal 0.499997 0.866027 0
    outer loop
      vertex 3.6626 18.5016 10
      vertex 3.6626 18.5016 5
      vertex 3.29931 18.7113 10
    endloop
  endfacet
  facet normal 0.499997 0.866027 0
    outer loop
      vertex 3.29931 18.7113 10
      vertex 3.6626 18.5016 5
      vertex 3.29931 18.7113 5
    endloop
  endfacet
  facet normal 0 0 -1
    outer loop
      vertex 14.6309 12.004 10
      vertex 17.9705 6.16929 10
      vertex 19 0 10
    endloop
  endfacet
  facet normal 0 0 -1
    outer loop
      vertex 17.9705 6.16929 10
      vertex 14.6309 12.004 10
      vertex 14.9937 11.67 10
    endloop
  endfacet
  facet normal 0 0 -1
    outer loop
      vertex -18.7409 -3.1273 10
      vertex -17.8542 5.71018 10
      vertex -17.8542 -5.71018 10
    endloop
  endfacet
  facet normal 0 0 -1
    outer loop
      vertex -17.8542 5.71018 10
      vertex -18.7409 -3.1273 10
      vertex -18.7409 3.1273 10
    endloop
  endfacet
  facet normal 0 0 -1
    outer loop
      vertex -8.92333 16.5562 10
      vertex -1.56901 18.9351 10
      vertex 2.60622 18.5891 10
    endloop
  endfacet
  facet normal 0 0 -1
    outer loop
      vertex -1.56901 18.9351 10
      vertex -8.92333 16.5562 10
      vertex -7.63221 17.3997 10
    endloop
  endfacet
  facet normal 0 0 -1
    outer loop
      vertex 14.6309 -12.004 10
      vertex 17.9705 -6.16929 10
      vertex 14.9937 -11.67 10
    endloop
  endfacet
  facet normal -0 0 -1
    outer loop
      vertex 17.9705 -6.16929 10
      vertex 14.6309 -12.004 10
      vertex 19 0 10
    endloop
  endfacet
  facet normal 0 0 -1
    outer loop
      vertex 3.6626 18.5016 10
      vertex 10.392 15.9062 10
      vertex 14.15 12.4467 10
    endloop
  endfacet
  facet normal 0 0 -1
    outer loop
      vertex 10.392 15.9062 10
      vertex 3.6626 18.5016 10
      vertex 4.66422 18.4186 10
    endloop
  endfacet
  facet normal 0 0 -1
    outer loop
      vertex 3.6626 -18.5016 10
      vertex 10.392 -15.9062 10
      vertex 4.66422 -18.4186 10
    endloop
  endfacet
  facet normal -0 0 -1
    outer loop
      vertex 10.392 -15.9062 10
      vertex 3.6626 -18.5016 10
      vertex 14.15 -12.4467 10
    endloop
  endfacet
  facet normal 0 0 -1
    outer loop
      vertex -17.3962 -7.04415 10
      vertex -12.8683 -13.9788 10
      vertex -16.71 -9.043 10
    endloop
  endfacet
  facet normal 0 0 -1
    outer loop
      vertex -12.8683 -13.9788 10
      vertex -17.3962 -7.04415 10
      vertex -10.0109 -15.8456 10
    endloop
  endfacet
  facet normal 0 0 -1
    outer loop
      vertex -17.3962 7.04415 10
      vertex -12.8683 13.9788 10
      vertex -10.0109 15.8456 10
    endloop
  endfacet
  facet normal 0 0 -1
    outer loop
      vertex -12.8683 13.9788 10
      vertex -17.3962 7.04415 10
      vertex -16.71 9.043 10
    endloop
  endfacet
  facet normal 0 0 -1
    outer loop
      vertex -8.92333 -16.5562 10
      vertex -1.56901 -18.9351 10
      vertex -7.63221 -17.3997 10
    endloop
  endfacet
  facet normal 0 0 -1
    outer loop
      vertex -1.56901 -18.9351 10
      vertex -8.92333 -16.5562 10
      vertex 2.60622 -18.5891 10
    endloop
  endfacet
  facet normal 0 0 1
    outer loop
      vertex 14.5548 12.213 10
      vertex 14.15 12.4467 10
      vertex 14.6309 12.004 10
    endloop
  endfacet
  facet normal 0 0 1
    outer loop
      vertex 3.29931 18.7113 10
      vertex 2.60622 18.5891 10
      vertex 3.6626 18.5016 10
    endloop
  endfacet
  facet normal 0 0 1
    outer loop
      vertex -17.8542 -5.71018 10
      vertex -17.8542 -6.49838 10
      vertex -17.3962 -7.04415 10
    endloop
  endfacet
  facet normal 0 0 1
    outer loop
      vertex 3.6626 -18.5016 10
      vertex 2.60622 -18.5891 10
      vertex 3.29931 -18.7113 10
    endloop
  endfacet
  facet normal -0 0 1
    outer loop
      vertex -9.5 16.4545 10
      vertex -10.0109 15.8456 10
      vertex -8.92333 16.5562 10
    endloop
  endfacet
  facet normal -0 0 1
    outer loop
      vertex -17.8542 6.49838 10
      vertex -17.8542 5.71018 10
      vertex -17.3962 7.04415 10
    endloop
  endfacet
  facet normal 0 0 1
    outer loop
      vertex 14.6309 -12.004 10
      vertex 14.15 -12.4467 10
      vertex 14.5548 -12.213 10
    endloop
  endfacet
  facet normal 0 0 1
    outer loop
      vertex -8.92333 -16.5562 10
      vertex -10.0109 -15.8456 10
      vertex -9.5 -16.4545 10
    endloop
  endfacet
  facet normal -0.766045 0.642787 0
    outer loop
      vertex -10.0109 15.8456 5
      vertex -9.5 16.4545 10
      vertex -9.5 16.4545 5
    endloop
  endfacet
  facet normal -0.766045 0.642787 0
    outer loop
      vertex -10.0109 15.8456 5
      vertex -10.0109 15.8456 10
      vertex -9.5 16.4545 10
    endloop
  endfacet
  facet normal -0.766044 0.642788 0
    outer loop
      vertex -17.3962 7.04415 5
      vertex -10.0109 15.8456 10
      vertex -10.0109 15.8456 5
    endloop
  endfacet
  facet normal -0.766044 0.642788 0
    outer loop
      vertex -17.3962 7.04415 5
      vertex -17.3962 7.04415 10
      vertex -10.0109 15.8456 10
    endloop
  endfacet
  facet normal -0.766044 0.642788 0
    outer loop
      vertex -17.8542 6.49838 5
      vertex -17.3962 7.04415 10
      vertex -17.3962 7.04415 5
    endloop
  endfacet
  facet normal -0.766044 0.642788 0
    outer loop
      vertex -17.3962 7.04415 10
      vertex -17.8542 6.49838 5
      vertex -17.8542 6.49838 10
    endloop
  endfacet
  facet normal 0.939693 -0.34202 0
    outer loop
      vertex 14.6309 -12.004 10
      vertex 19 0 5
      vertex 19 0 10
    endloop
  endfacet
  facet normal 0.939693 -0.34202 0
    outer loop
      vertex 14.6309 -12.004 10
      vertex 14.6309 -12.004 5
      vertex 19 0 5
    endloop
  endfacet
  facet normal 0.939693 -0.34202 0
    outer loop
      vertex 14.5548 -12.213 10
      vertex 14.6309 -12.004 5
      vertex 14.6309 -12.004 10
    endloop
  endfacet
  facet normal 0.939693 -0.34202 0
    outer loop
      vertex 14.6309 -12.004 5
      vertex 14.5548 -12.213 10
      vertex 14.5548 -12.213 5
    endloop
  endfacet
  facet normal 0.499997 -0.866027 0
    outer loop
      vertex 3.6626 -18.5016 5
      vertex 3.6626 -18.5016 10
      vertex 3.29931 -18.7113 10
    endloop
  endfacet
  facet normal 0.5 -0.866025 0
    outer loop
      vertex 3.6626 -18.5016 10
      vertex 3.6626 -18.5016 5
      vertex 14.15 -12.4467 10
    endloop
  endfacet
  facet normal 0.499997 -0.866027 0
    outer loop
      vertex 3.6626 -18.5016 5
      vertex 3.29931 -18.7113 10
      vertex 3.29931 -18.7113 5
    endloop
  endfacet
  facet normal 0.5 -0.866025 0
    outer loop
      vertex 14.15 -12.4467 5
      vertex 14.15 -12.4467 10
      vertex 3.6626 -18.5016 5
    endloop
  endfacet
  facet normal 0.500001 -0.866025 0
    outer loop
      vertex 14.15 -12.4467 10
      vertex 14.15 -12.4467 5
      vertex 14.5548 -12.213 10
    endloop
  endfacet
  facet normal 0.500001 -0.866025 0
    outer loop
      vertex 14.5548 -12.213 10
      vertex 14.15 -12.4467 5
      vertex 14.5548 -12.213 5
    endloop
  endfacet
  facet normal -0.766044 -0.642788 0
    outer loop
      vertex -17.3962 -7.04415 5
      vertex -17.8542 -6.49838 10
      vertex -17.8542 -6.49838 5
    endloop
  endfacet
  facet normal -0.766044 -0.642788 0
    outer loop
      vertex -17.3962 -7.04415 5
      vertex -17.3962 -7.04415 10
      vertex -17.8542 -6.49838 10
    endloop
  endfacet
  facet normal -0.766044 -0.642788 0
    outer loop
      vertex -10.0109 -15.8456 5
      vertex -17.3962 -7.04415 10
      vertex -17.3962 -7.04415 5
    endloop
  endfacet
  facet normal -0.766044 -0.642788 0
    outer loop
      vertex -10.0109 -15.8456 5
      vertex -10.0109 -15.8456 10
      vertex -17.3962 -7.04415 10
    endloop
  endfacet
  facet normal -0.766045 -0.642787 0
    outer loop
      vertex -9.5 -16.4545 5
      vertex -10.0109 -15.8456 10
      vertex -10.0109 -15.8456 5
    endloop
  endfacet
  facet normal -0.766045 -0.642787 0
    outer loop
      vertex -10.0109 -15.8456 10
      vertex -9.5 -16.4545 5
      vertex -9.5 -16.4545 10
    endloop
  endfacet
  facet normal -0.173648 -0.984808 0
    outer loop
      vertex -8.92333 -16.5562 5
      vertex -8.92333 -16.5562 10
      vertex -9.5 -16.4545 10
    endloop
  endfacet
  facet normal -0.173648 -0.984808 -0
    outer loop
      vertex -8.92333 -16.5562 10
      vertex -8.92333 -16.5562 5
      vertex 2.60622 -18.5891 10
    endloop
  endfacet
  facet normal -0.173648 -0.984808 0
    outer loop
      vertex -8.92333 -16.5562 5
      vertex -9.5 -16.4545 10
      vertex -9.5 -16.4545 5
    endloop
  endfacet
  facet normal -0.173648 -0.984808 -0
    outer loop
      vertex 2.60622 -18.5891 10
      vertex -8.92333 -16.5562 5
      vertex 2.60622 -18.5891 5
    endloop
  endfacet
  facet normal -0.173646 -0.984808 -0
    outer loop
      vertex 2.60622 -18.5891 10
      vertex 2.60622 -18.5891 5
      vertex 3.29931 -18.7113 10
    endloop
  endfacet
  facet normal -0.173646 -0.984808 -0
    outer loop
      vertex 3.29931 -18.7113 10
      vertex 2.60622 -18.5891 5
      vertex 3.29931 -18.7113 5
    endloop
  endfacet
  facet normal 0.986361 0.164595 0
    outer loop
      vertex 19 0 15
      vertex 17.9705 6.16929 10
      vertex 17.9705 6.16929 15
    endloop
  endfacet
  facet normal 0.986361 0.164595 0
    outer loop
      vertex 17.9705 6.16929 10
      vertex 19 0 15
      vertex 19 0 10
    endloop
  endfacet
  facet normal -1 0 0
    outer loop
      vertex -18.7409 -3.1273 10
      vertex -18.7409 3.1273 15
      vertex -18.7409 3.1273 10
    endloop
  endfacet
  facet normal -1 -0 0
    outer loop
      vertex -18.7409 3.1273 15
      vertex -18.7409 -3.1273 10
      vertex -18.7409 -3.1273 15
    endloop
  endfacet
  facet normal 0.0825791 0.996585 -0
    outer loop
      vertex 3.6626 18.5016 10
      vertex 3.6626 18.5016 15
      vertex 4.66422 18.4186 15
    endloop
  endfacet
  facet normal 0.0825791 0.996585 0
    outer loop
      vertex 3.6626 18.5016 15
      vertex 3.6626 18.5016 10
      vertex 2.60622 18.5891 15
    endloop
  endfacet
  facet normal 0.0825791 0.996585 0
    outer loop
      vertex 3.6626 18.5016 10
      vertex 4.66422 18.4186 15
      vertex 4.66422 18.4186 10
    endloop
  endfacet
  facet normal 0.0825791 0.996585 0
    outer loop
      vertex 2.60622 18.5891 15
      vertex 3.6626 18.5016 10
      vertex 2.60622 18.5891 10
    endloop
  endfacet
  facet normal 0.0825791 0.996585 0
    outer loop
      vertex 2.60622 18.5891 15
      vertex 2.60622 18.5891 10
      vertex -1.56901 18.9351 15
    endloop
  endfacet
  facet normal 0.0825791 0.996585 0
    outer loop
      vertex -1.56901 18.9351 15
      vertex 2.60622 18.5891 10
      vertex -1.56901 18.9351 10
    endloop
  endfacet
  facet normal 0.0825791 -0.996585 0
    outer loop
      vertex 2.60622 -18.5891 10
      vertex 2.60622 -18.5891 15
      vertex -1.56901 -18.9351 15
    endloop
  endfacet
  facet normal 0.0825791 -0.996585 0
    outer loop
      vertex 2.60622 -18.5891 15
      vertex 2.60622 -18.5891 10
      vertex 3.6626 -18.5016 15
    endloop
  endfacet
  facet normal 0.0825791 -0.996585 0
    outer loop
      vertex 2.60622 -18.5891 10
      vertex -1.56901 -18.9351 15
      vertex -1.56901 -18.9351 10
    endloop
  endfacet
  facet normal 0.0825791 -0.996585 0
    outer loop
      vertex 3.6626 -18.5016 10
      vertex 3.6626 -18.5016 15
      vertex 2.60622 -18.5891 10
    endloop
  endfacet
  facet normal 0.0825791 -0.996585 0
    outer loop
      vertex 3.6626 -18.5016 15
      vertex 3.6626 -18.5016 10
      vertex 4.66422 -18.4186 15
    endloop
  endfacet
  facet normal 0.0825791 -0.996585 0
    outer loop
      vertex 4.66422 -18.4186 15
      vertex 3.6626 -18.5016 10
      vertex 4.66422 -18.4186 10
    endloop
  endfacet
  facet normal 0.401696 -0.915773 0
    outer loop
      vertex 4.66422 -18.4186 10
      vertex 10.392 -15.9062 15
      vertex 4.66422 -18.4186 15
    endloop
  endfacet
  facet normal 0.401696 -0.915773 0
    outer loop
      vertex 10.392 -15.9062 15
      vertex 4.66422 -18.4186 10
      vertex 10.392 -15.9062 10
    endloop
  endfacet
  facet normal 0.677282 0.735724 -0
    outer loop
      vertex 14.6309 12.004 10
      vertex 14.6309 12.004 15
      vertex 14.9937 11.67 15
    endloop
  endfacet
  facet normal 0.677282 0.735724 0
    outer loop
      vertex 14.6309 12.004 15
      vertex 14.6309 12.004 10
      vertex 14.15 12.4467 15
    endloop
  endfacet
  facet normal 0.677282 0.735724 0
    outer loop
      vertex 14.6309 12.004 10
      vertex 14.9937 11.67 15
      vertex 14.9937 11.67 10
    endloop
  endfacet
  facet normal 0.677282 0.735724 0
    outer loop
      vertex 14.15 12.4467 15
      vertex 14.6309 12.004 10
      vertex 14.15 12.4467 10
    endloop
  endfacet
  facet normal 0.677281 0.735724 0
    outer loop
      vertex 14.15 12.4467 15
      vertex 14.15 12.4467 10
      vertex 10.392 15.9062 15
    endloop
  endfacet
  facet normal 0.677281 0.735724 0
    outer loop
      vertex 10.392 15.9062 15
      vertex 14.15 12.4467 10
      vertex 10.392 15.9062 10
    endloop
  endfacet
  facet normal 0.879474 0.475947 0
    outer loop
      vertex 17.9705 6.16929 15
      vertex 14.9937 11.67 10
      vertex 14.9937 11.67 15
    endloop
  endfacet
  facet normal 0.879474 0.475947 0
    outer loop
      vertex 14.9937 11.67 10
      vertex 17.9705 6.16929 15
      vertex 17.9705 6.16929 10
    endloop
  endfacet
  facet normal 0.401696 0.915773 -0
    outer loop
      vertex 10.392 15.9062 10
      vertex 4.66422 18.4186 15
      vertex 10.392 15.9062 15
    endloop
  endfacet
  facet normal 0.401696 0.915773 0
    outer loop
      vertex 4.66422 18.4186 15
      vertex 10.392 15.9062 10
      vertex 4.66422 18.4186 10
    endloop
  endfacet
  facet normal -0.78914 0.614213 0
    outer loop
      vertex -16.71 9.043 10
      vertex -12.8683 13.9788 15
      vertex -12.8683 13.9788 10
    endloop
  endfacet
  facet normal -0.78914 0.614213 0
    outer loop
      vertex -12.8683 13.9788 15
      vertex -16.71 9.043 10
      vertex -16.71 9.043 15
    endloop
  endfacet
  facet normal -0.945817 0.324699 0
    outer loop
      vertex -17.3962 7.04415 10
      vertex -16.71 9.043 15
      vertex -16.71 9.043 10
    endloop
  endfacet
  facet normal -0.945817 0.324699 0
    outer loop
      vertex -17.3962 7.04415 10
      vertex -17.3962 7.04415 15
      vertex -16.71 9.043 15
    endloop
  endfacet
  facet normal -0.945817 0.3247 0
    outer loop
      vertex -17.8542 5.71018 10
      vertex -17.3962 7.04415 15
      vertex -17.3962 7.04415 10
    endloop
  endfacet
  facet normal -0.945817 0.3247 0
    outer loop
      vertex -17.8542 5.71018 10
      vertex -17.8542 5.71018 15
      vertex -17.3962 7.04415 15
    endloop
  endfacet
  facet normal -0.945817 0.324699 0
    outer loop
      vertex -18.7409 3.1273 10
      vertex -17.8542 5.71018 15
      vertex -17.8542 5.71018 10
    endloop
  endfacet
  facet normal -0.945817 0.324699 0
    outer loop
      vertex -17.8542 5.71018 15
      vertex -18.7409 3.1273 10
      vertex -18.7409 3.1273 15
    endloop
  endfacet
  facet normal -0 -0 -1
    outer loop
      vertex 14.5548 12.213 15
      vertex 14.6309 12.004 15
      vertex 14.15 12.4467 15
    endloop
  endfacet
  facet normal 0 0 -1
    outer loop
      vertex -17.8542 -5.71018 15
      vertex -17.3962 -7.04415 15
      vertex -17.8542 -6.49838 15
    endloop
  endfacet
  facet normal 0 -0 -1
    outer loop
      vertex -9.5 16.4545 15
      vertex -8.92333 16.5562 15
      vertex -10.0109 15.8456 15
    endloop
  endfacet
  facet normal 0 -0 -1
    outer loop
      vertex 3.29931 18.7113 15
      vertex 3.6626 18.5016 15
      vertex 2.60622 18.5891 15
    endloop
  endfacet
  facet normal 0 0 1
    outer loop
      vertex 14.6309 -12.004 15
      vertex 17.9705 -6.16929 15
      vertex 19 0 15
    endloop
  endfacet
  facet normal 0 0 1
    outer loop
      vertex 17.9705 -6.16929 15
      vertex 14.6309 -12.004 15
      vertex 14.9937 -11.67 15
    endloop
  endfacet
  facet normal 0 0 1
    outer loop
      vertex 14.6309 12.004 15
      vertex 17.9705 6.16929 15
      vertex 14.9937 11.67 15
    endloop
  endfacet
  facet normal 0 0 1
    outer loop
      vertex 17.9705 6.16929 15
      vertex 14.6309 12.004 15
      vertex 19 0 15
    endloop
  endfacet
  facet normal 0 0 -1
    outer loop
      vertex -17.8542 6.49838 15
      vertex -17.3962 7.04415 15
      vertex -17.8542 5.71018 15
    endloop
  endfacet
  facet normal 0 0 -1
    outer loop
      vertex 14.6309 -12.004 15
      vertex 14.5548 -12.213 15
      vertex 14.15 -12.4467 15
    endloop
  endfacet
  facet normal 0 0 -1
    outer loop
      vertex -8.92333 -16.5562 15
      vertex -9.5 -16.4545 15
      vertex -10.0109 -15.8456 15
    endloop
  endfacet
  facet normal 0 0 -1
    outer loop
      vertex 3.6626 -18.5016 15
      vertex 3.29931 -18.7113 15
      vertex 2.60622 -18.5891 15
    endloop
  endfacet
  facet normal -0 0 1
    outer loop
      vertex -18.7409 3.1273 15
      vertex -17.8542 -5.71018 15
      vertex -17.8542 5.71018 15
    endloop
  endfacet
  facet normal 0 0 1
    outer loop
      vertex -17.8542 -5.71018 15
      vertex -18.7409 3.1273 15
      vertex -18.7409 -3.1273 15
    endloop
  endfacet
  facet normal 0 0 1
    outer loop
      vertex -8.92333 -16.5562 15
      vertex -1.56901 -18.9351 15
      vertex 2.60622 -18.5891 15
    endloop
  endfacet
  facet normal 0 0 1
    outer loop
      vertex -1.56901 -18.9351 15
      vertex -8.92333 -16.5562 15
      vertex -7.63221 -17.3997 15
    endloop
  endfacet
  facet normal 0 0 1
    outer loop
      vertex -8.92333 16.5562 15
      vertex -1.56901 18.9351 15
      vertex -7.63221 17.3997 15
    endloop
  endfacet
  facet normal 0 0 1
    outer loop
      vertex -1.56901 18.9351 15
      vertex -8.92333 16.5562 15
      vertex 2.60622 18.5891 15
    endloop
  endfacet
  facet normal 0 0 1
    outer loop
      vertex -17.3962 7.04415 15
      vertex -12.8683 13.9788 15
      vertex -16.71 9.043 15
    endloop
  endfacet
  facet normal -0 0 1
    outer loop
      vertex -12.8683 13.9788 15
      vertex -17.3962 7.04415 15
      vertex -10.0109 15.8456 15
    endloop
  endfacet
  facet normal 0 0 1
    outer loop
      vertex 3.6626 -18.5016 15
      vertex 10.392 -15.9062 15
      vertex 14.15 -12.4467 15
    endloop
  endfacet
  facet normal 0 0 1
    outer loop
      vertex 10.392 -15.9062 15
      vertex 3.6626 -18.5016 15
      vertex 4.66422 -18.4186 15
    endloop
  endfacet
  facet normal 0 0 1
    outer loop
      vertex 3.6626 18.5016 15
      vertex 10.392 15.9062 15
      vertex 4.66422 18.4186 15
    endloop
  endfacet
  facet normal 0 0 1
    outer loop
      vertex 10.392 15.9062 15
      vertex 3.6626 18.5016 15
      vertex 14.15 12.4467 15
    endloop
  endfacet
  facet normal 0 0 1
    outer loop
      vertex -17.3962 -7.04415 15
      vertex -12.8683 -13.9788 15
      vertex -10.0109 -15.8456 15
    endloop
  endfacet
  facet normal 0 0 1
    outer loop
      vertex -12.8683 -13.9788 15
      vertex -17.3962 -7.04415 15
      vertex -16.71 -9.043 15
    endloop
  endfacet
  facet normal -0.546948 0.837166 0
    outer loop
      vertex -8.92333 16.5562 10
      vertex -8.92333 16.5562 15
      vertex -7.63221 17.3997 15
    endloop
  endfacet
  facet normal -0.546948 0.837167 0
    outer loop
      vertex -8.92333 16.5562 15
      vertex -8.92333 16.5562 10
      vertex -10.0109 15.8456 15
    endloop
  endfacet
  facet normal -0.546948 0.837166 0
    outer loop
      vertex -8.92333 16.5562 10
      vertex -7.63221 17.3997 15
      vertex -7.63221 17.3997 10
    endloop
  endfacet
  facet normal -0.546948 0.837167 0
    outer loop
      vertex -10.0109 15.8456 15
      vertex -8.92333 16.5562 10
      vertex -10.0109 15.8456 10
    endloop
  endfacet
  facet normal -0.546948 0.837166 0
    outer loop
      vertex -10.0109 15.8456 15
      vertex -10.0109 15.8456 10
      vertex -12.8683 13.9788 15
    endloop
  endfacet
  facet normal -0.546948 0.837166 0
    outer loop
      vertex -12.8683 13.9788 15
      vertex -10.0109 15.8456 10
      vertex -12.8683 13.9788 10
    endloop
  endfacet
  facet normal -0.245485 0.9694 0
    outer loop
      vertex -1.56901 18.9351 10
      vertex -7.63221 17.3997 15
      vertex -1.56901 18.9351 15
    endloop
  endfacet
  facet normal -0.245485 0.9694 0
    outer loop
      vertex -7.63221 17.3997 15
      vertex -1.56901 18.9351 10
      vertex -7.63221 17.3997 10
    endloop
  endfacet
  facet normal -0.945817 -0.324699 0
    outer loop
      vertex -17.8542 -5.71018 10
      vertex -18.7409 -3.1273 15
      vertex -18.7409 -3.1273 10
    endloop
  endfacet
  facet normal -0.945817 -0.324699 0
    outer loop
      vertex -17.8542 -5.71018 10
      vertex -17.8542 -5.71018 15
      vertex -18.7409 -3.1273 15
    endloop
  endfacet
  facet normal -0.945817 -0.3247 0
    outer loop
      vertex -17.3962 -7.04415 10
      vertex -17.8542 -5.71018 15
      vertex -17.8542 -5.71018 10
    endloop
  endfacet
  facet normal -0.945817 -0.3247 0
    outer loop
      vertex -17.3962 -7.04415 10
      vertex -17.3962 -7.04415 15
      vertex -17.8542 -5.71018 15
    endloop
  endfacet
  facet normal -0.945817 -0.324699 0
    outer loop
      vertex -16.71 -9.043 10
      vertex -17.3962 -7.04415 15
      vertex -17.3962 -7.04415 10
    endloop
  endfacet
  facet normal -0.945817 -0.324699 0
    outer loop
      vertex -17.3962 -7.04415 15
      vertex -16.71 -9.043 10
      vertex -16.71 -9.043 15
    endloop
  endfacet
  facet normal 0.677281 -0.735724 0
    outer loop
      vertex 14.15 -12.4467 10
      vertex 14.15 -12.4467 15
      vertex 10.392 -15.9062 15
    endloop
  endfacet
  facet normal 0.677282 -0.735724 0
    outer loop
      vertex 14.15 -12.4467 15
      vertex 14.15 -12.4467 10
      vertex 14.6309 -12.004 15
    endloop
  endfacet
  facet normal 0.677281 -0.735724 0
    outer loop
      vertex 14.15 -12.4467 10
      vertex 10.392 -15.9062 15
      vertex 10.392 -15.9062 10
    endloop
  endfacet
  facet normal 0.677282 -0.735724 0
    outer loop
      vertex 14.6309 -12.004 10
      vertex 14.6309 -12.004 15
      vertex 14.15 -12.4467 10
    endloop
  endfacet
  facet normal 0.677282 -0.735724 0
    outer loop
      vertex 14.6309 -12.004 15
      vertex 14.6309 -12.004 10
      vertex 14.9937 -11.67 15
    endloop
  endfacet
  facet normal 0.677282 -0.735724 0
    outer loop
      vertex 14.9937 -11.67 15
      vertex 14.6309 -12.004 10
      vertex 14.9937 -11.67 10
    endloop
  endfacet
  facet normal 0.879474 -0.475947 0
    outer loop
      vertex 14.9937 -11.67 15
      vertex 17.9705 -6.16929 10
      vertex 17.9705 -6.16929 15
    endloop
  endfacet
  facet normal 0.879474 -0.475947 0
    outer loop
      vertex 17.9705 -6.16929 10
      vertex 14.9937 -11.67 15
      vertex 14.9937 -11.67 10
    endloop
  endfacet
  facet normal -0.546948 -0.837166 0
    outer loop
      vertex -10.0109 -15.8456 10
      vertex -10.0109 -15.8456 15
      vertex -12.8683 -13.9788 15
    endloop
  endfacet
  facet normal -0.546948 -0.837166 -0
    outer loop
      vertex -10.0109 -15.8456 15
      vertex -10.0109 -15.8456 10
      vertex -8.92333 -16.5562 15
    endloop
  endfacet
  facet normal -0.546948 -0.837166 0
    outer loop
      vertex -10.0109 -15.8456 10
      vertex -12.8683 -13.9788 15
      vertex -12.8683 -13.9788 10
    endloop
  endfacet
  facet normal -0.546948 -0.837166 0
    outer loop
      vertex -8.92333 -16.5562 10
      vertex -8.92333 -16.5562 15
      vertex -10.0109 -15.8456 10
    endloop
  endfacet
  facet normal -0.546948 -0.837167 -0
    outer loop
      vertex -8.92333 -16.5562 15
      vertex -8.92333 -16.5562 10
      vertex -7.63221 -17.3997 15
    endloop
  endfacet
  facet normal -0.546948 -0.837167 -0
    outer loop
      vertex -7.63221 -17.3997 15
      vertex -8.92333 -16.5562 10
      vertex -7.63221 -17.3997 10
    endloop
  endfacet
  facet normal -0.78914 -0.614213 0
    outer loop
      vertex -12.8683 -13.9788 10
      vertex -16.71 -9.043 15
      vertex -16.71 -9.043 10
    endloop
  endfacet
  facet normal -0.78914 -0.614213 0
    outer loop
      vertex -16.71 -9.043 15
      vertex -12.8683 -13.9788 10
      vertex -12.8683 -13.9788 15
    endloop
  endfacet
  facet normal 0.986361 -0.164595 0
    outer loop
      vertex 17.9705 -6.16929 15
      vertex 19 0 10
      vertex 19 0 15
    endloop
  endfacet
  facet normal 0.986361 -0.164595 0
    outer loop
      vertex 19 0 10
      vertex 17.9705 -6.16929 15
      vertex 17.9705 -6.16929 10
    endloop
  endfacet
  facet normal -0.245485 -0.9694 0
    outer loop
      vertex -7.63221 -17.3997 10
      vertex -1.56901 -18.9351 15
      vertex -7.63221 -17.3997 15
    endloop
  endfacet
  facet normal -0.245485 -0.9694 -0
    outer loop
      vertex -1.56901 -18.9351 15
      vertex -7.63221 -17.3997 10
      vertex -1.56901 -18.9351 10
    endloop
  endfacet
  facet normal 0.939693 0.34202 0
    outer loop
      vertex 14.6309 12.004 20
      vertex 14.5548 12.213 15
      vertex 14.5548 12.213 20
    endloop
  endfacet
  facet normal 0.939693 0.34202 0
    outer loop
      vertex 14.6309 12.004 20
      vertex 14.6309 12.004 15
      vertex 14.5548 12.213 15
    endloop
  endfacet
  facet normal 0.939693 0.34202 0
    outer loop
      vertex 19 0 20
      vertex 14.6309 12.004 15
      vertex 14.6309 12.004 20
    endloop
  endfacet
  facet normal 0.939693 0.34202 0
    outer loop
      vertex 14.6309 12.004 15
      vertex 19 0 20
      vertex 19 0 15
    endloop
  endfacet
  facet normal -1 0 0
    outer loop
      vertex -17.8542 5.71018 15
      vertex -17.8542 6.49838 20
      vertex -17.8542 6.49838 15
    endloop
  endfacet
  facet normal -1 0 0
    outer loop
      vertex -17.8542 5.71018 15
      vertex -17.8542 5.71018 20
      vertex -17.8542 6.49838 20
    endloop
  endfacet
  facet normal -1 0 0
    outer loop
      vertex -17.8542 -5.71018 15
      vertex -17.8542 5.71018 20
      vertex -17.8542 5.71018 15
    endloop
  endfacet
  facet normal -1 0 0
    outer loop
      vertex -17.8542 -5.71018 15
      vertex -17.8542 -5.71018 20
      vertex -17.8542 5.71018 20
    endloop
  endfacet
  facet normal -1 0 0
    outer loop
      vertex -17.8542 -6.49838 15
      vertex -17.8542 -5.71018 20
      vertex -17.8542 -5.71018 15
    endloop
  endfacet
  facet normal -1 -0 0
    outer loop
      vertex -17.8542 -5.71018 20
      vertex -17.8542 -6.49838 15
      vertex -17.8542 -6.49838 20
    endloop
  endfacet
  facet normal -0.173646 0.984808 0
    outer loop
      vertex 2.60622 18.5891 15
      vertex 2.60622 18.5891 20
      vertex 3.29931 18.7113 20
    endloop
  endfacet
  facet normal -0.173648 0.984808 0
    outer loop
      vertex 2.60622 18.5891 20
      vertex 2.60622 18.5891 15
      vertex -8.92333 16.5562 20
    endloop
  endfacet
  facet normal -0.173646 0.984808 0
    outer loop
      vertex 2.60622 18.5891 15
      vertex 3.29931 18.7113 20
      vertex 3.29931 18.7113 15
    endloop
  endfacet
  facet normal -0.173648 0.984808 0
    outer loop
      vertex -8.92333 16.5562 15
      vertex -8.92333 16.5562 20
      vertex 2.60622 18.5891 15
    endloop
  endfacet
  facet normal -0.173645 0.984808 0
    outer loop
      vertex -8.92333 16.5562 20
      vertex -8.92333 16.5562 15
      vertex -9.5 16.4545 20
    endloop
  endfacet
  facet normal -0.173645 0.984808 0
    outer loop
      vertex -9.5 16.4545 20
      vertex -8.92333 16.5562 15
      vertex -9.5 16.4545 15
    endloop
  endfacet
  facet normal 0.500001 0.866025 -0
    outer loop
      vertex 14.15 12.4467 15
      vertex 14.15 12.4467 20
      vertex 14.5548 12.213 20
    endloop
  endfacet
  facet normal 0.5 0.866025 0
    outer loop
      vertex 14.15 12.4467 20
      vertex 14.15 12.4467 15
      vertex 3.6626 18.5016 20
    endloop
  endfacet
  facet normal 0.500001 0.866025 0
    outer loop
      vertex 14.15 12.4467 15
      vertex 14.5548 12.213 20
      vertex 14.5548 12.213 15
    endloop
  endfacet
  facet normal 0.5 0.866025 -0
    outer loop
      vertex 3.6626 18.5016 15
      vertex 3.6626 18.5016 20
      vertex 14.15 12.4467 15
    endloop
  endfacet
  facet normal 0.499997 0.866027 0
    outer loop
      vertex 3.6626 18.5016 20
      vertex 3.6626 18.5016 15
      vertex 3.29931 18.7113 20
    endloop
  endfacet
  facet normal 0.499997 0.866027 0
    outer loop
      vertex 3.29931 18.7113 20
      vertex 3.6626 18.5016 15
      vertex 3.29931 18.7113 15
    endloop
  endfacet
  facet normal 0 0 -1
    outer loop
      vertex 14.6309 12.004 20
      vertex 17.9705 6.16929 20
      vertex 19 0 20
    endloop
  endfacet
  facet normal 0 0 -1
    outer loop
      vertex 17.9705 6.16929 20
      vertex 14.6309 12.004 20
      vertex 14.9937 11.67 20
    endloop
  endfacet
  facet normal 0 0 -1
    outer loop
      vertex -18.7409 -3.1273 20
      vertex -17.8542 5.71018 20
      vertex -17.8542 -5.71018 20
    endloop
  endfacet
  facet normal 0 0 -1
    outer loop
      vertex -17.8542 5.71018 20
      vertex -18.7409 -3.1273 20
      vertex -18.7409 3.1273 20
    endloop
  endfacet
  facet normal 0 0 -1
    outer loop
      vertex -8.92333 16.5562 20
      vertex -1.56901 18.9351 20
      vertex 2.60622 18.5891 20
    endloop
  endfacet
  facet normal 0 0 -1
    outer loop
      vertex -1.56901 18.9351 20
      vertex -8.92333 16.5562 20
      vertex -7.63221 17.3997 20
    endloop
  endfacet
  facet normal 0 0 -1
    outer loop
      vertex 14.6309 -12.004 20
      vertex 17.9705 -6.16929 20
      vertex 14.9937 -11.67 20
    endloop
  endfacet
  facet normal -0 0 -1
    outer loop
      vertex 17.9705 -6.16929 20
      vertex 14.6309 -12.004 20
      vertex 19 0 20
    endloop
  endfacet
  facet normal 0 0 -1
    outer loop
      vertex 3.6626 18.5016 20
      vertex 10.392 15.9062 20
      vertex 14.15 12.4467 20
    endloop
  endfacet
  facet normal 0 0 -1
    outer loop
      vertex 10.392 15.9062 20
      vertex 3.6626 18.5016 20
      vertex 4.66422 18.4186 20
    endloop
  endfacet
  facet normal 0 0 -1
    outer loop
      vertex 3.6626 -18.5016 20
      vertex 10.392 -15.9062 20
      vertex 4.66422 -18.4186 20
    endloop
  endfacet
  facet normal -0 0 -1
    outer loop
      vertex 10.392 -15.9062 20
      vertex 3.6626 -18.5016 20
      vertex 14.15 -12.4467 20
    endloop
  endfacet
  facet normal 0 0 -1
    outer loop
      vertex -17.3962 -7.04415 20
      vertex -12.8683 -13.9788 20
      vertex -16.71 -9.043 20
    endloop
  endfacet
  facet normal 0 0 -1
    outer loop
      vertex -12.8683 -13.9788 20
      vertex -17.3962 -7.04415 20
      vertex -10.0109 -15.8456 20
    endloop
  endfacet
  facet normal 0 0 -1
    outer loop
      vertex -17.3962 7.04415 20
      vertex -12.8683 13.9788 20
      vertex -10.0109 15.8456 20
    endloop
  endfacet
  facet normal 0 0 -1
    outer loop
      vertex -12.8683 13.9788 20
      vertex -17.3962 7.04415 20
      vertex -16.71 9.043 20
    endloop
  endfacet
  facet normal 0 0 -1
    outer loop
      vertex -8.92333 -16.5562 20
      vertex -1.56901 -18.9351 20
      vertex -7.63221 -17.3997 20
    endloop
  endfacet
  facet normal 0 0 -1
    outer loop
      vertex -1.56901 -18.9351 20
      vertex -8.92333 -16.5562 20
      vertex 2.60622 -18.5891 20
    endloop
  endfacet
  facet normal 0 0 1
    outer loop
      vertex 14.5548 12.213 20
      vertex 14.15 12.4467 20
      vertex 14.6309 12.004 20
    endloop
  endfacet
  facet normal 0 0 1
    outer loop
      vertex 3.29931 18.7113 20
      vertex 2.60622 18.5891 20
      vertex 3.6626 18.5016 20
    endloop
  endfacet
  facet normal 0 0 1
    outer loop
      vertex -17.8542 -5.71018 20
      vertex -17.8542 -6.49838 20
      vertex -17.3962 -7.04415 20
    endloop
  endfacet
  facet normal 0 0 1
    outer loop
      vertex 3.6626 -18.5016 20
      vertex 2.60622 -18.5891 20
      vertex 3.29931 -18.7113 20
    endloop
  endfacet
  facet normal -0 0 1
    outer loop
      vertex -9.5 16.4545 20
      vertex -10.0109 15.8456 20
      vertex -8.92333 16.5562 20
    endloop
  endfacet
  facet normal -0 0 1
    outer loop
      vertex -17.8542 6.49838 20
      vertex -17.8542 5.71018 20
      vertex -17.3962 7.04415 20
    endloop
  endfacet
  facet normal 0 0 1
    outer loop
      vertex 14.6309 -12.004 20
      vertex 14.15 -12.4467 20
      vertex 14.5548 -12.213 20
    endloop
  endfacet
  facet normal 0 0 1
    outer loop
      vertex -8.92333 -16.5562 20
      vertex -10.0109 -15.8456 20
      vertex -9.5 -16.4545 20
    endloop
  endfacet
  facet normal -0.766045 0.642787 0
    outer loop
      vertex -10.0109 15.8456 15
      vertex -9.5 16.4545 20
      vertex -9.5 16.4545 15
    endloop
  endfacet
  facet normal -0.766045 0.642787 0
    outer loop
      vertex -10.0109 15.8456 15
      vertex -10.0109 15.8456 20
      vertex -9.5 16.4545 20
    endloop
  endfacet
  facet normal -0.766044 0.642788 0
    outer loop
      vertex -17.3962 7.04415 15
      vertex -10.0109 15.8456 20
      vertex -10.0109 15.8456 15
    endloop
  endfacet
  facet normal -0.766044 0.642788 0
    outer loop
      vertex -17.3962 7.04415 15
      vertex -17.3962 7.04415 20
      vertex -10.0109 15.8456 20
    endloop
  endfacet
  facet normal -0.766044 0.642788 0
    outer loop
      vertex -17.8542 6.49838 15
      vertex -17.3962 7.04415 20
      vertex -17.3962 7.04415 15
    endloop
  endfacet
  facet normal -0.766044 0.642788 0
    outer loop
      vertex -17.3962 7.04415 20
      vertex -17.8542 6.49838 15
      vertex -17.8542 6.49838 20
    endloop
  endfacet
  facet normal 0.939693 -0.34202 0
    outer loop
      vertex 14.6309 -12.004 20
      vertex 19 0 15
      vertex 19 0 20
    endloop
  endfacet
  facet normal 0.939693 -0.34202 0
    outer loop
      vertex 14.6309 -12.004 20
      vertex 14.6309 -12.004 15
      vertex 19 0 15
    endloop
  endfacet
  facet normal 0.939693 -0.34202 0
    outer loop
      vertex 14.5548 -12.213 20
      vertex 14.6309 -12.004 15
      vertex 14.6309 -12.004 20
    endloop
  endfacet
  facet normal 0.939693 -0.34202 0
    outer loop
      vertex 14.6309 -12.004 15
      vertex 14.5548 -12.213 20
      vertex 14.5548 -12.213 15
    endloop
  endfacet
  facet normal 0.499997 -0.866027 0
    outer loop
      vertex 3.6626 -18.5016 15
      vertex 3.6626 -18.5016 20
      vertex 3.29931 -18.7113 20
    endloop
  endfacet
  facet normal 0.5 -0.866025 0
    outer loop
      vertex 3.6626 -18.5016 20
      vertex 3.6626 -18.5016 15
      vertex 14.15 -12.4467 20
    endloop
  endfacet
  facet normal 0.499997 -0.866027 0
    outer loop
      vertex 3.6626 -18.5016 15
      vertex 3.29931 -18.7113 20
      vertex 3.29931 -18.7113 15
    endloop
  endfacet
  facet normal 0.5 -0.866025 0
    outer loop
      vertex 14.15 -12.4467 15
      vertex 14.15 -12.4467 20
      vertex 3.6626 -18.5016 15
    endloop
  endfacet
  facet normal 0.500001 -0.866025 0
    outer loop
      vertex 14.15 -12.4467 20
      vertex 14.15 -12.4467 15
      vertex 14.5548 -12.213 20
    endloop
  endfacet
  facet normal 0.500001 -0.866025 0
    outer loop
      vertex 14.5548 -12.213 20
      vertex 14.15 -12.4467 15
      vertex 14.5548 -12.213 15
    endloop
  endfacet
  facet normal -0.766044 -0.642788 0
    outer loop
      vertex -17.3962 -7.04415 15
      vertex -17.8542 -6.49838 20
      vertex -17.8542 -6.49838 15
    endloop
  endfacet
  facet normal -0.766044 -0.642788 0
    outer loop
      vertex -17.3962 -7.04415 15
      vertex -17.3962 -7.04415 20
      vertex -17.8542 -6.49838 20
    endloop
  endfacet
  facet normal -0.766044 -0.642788 0
    outer loop
      vertex -10.0109 -15.8456 15
      vertex -17.3962 -7.04415 20
      vertex -17.3962 -7.04415 15
    endloop
  endfacet
  facet normal -0.766044 -0.642788 0
    outer loop
      vertex -10.0109 -15.8456 15
      vertex -10.0109 -15.8456 20
      vertex -17.3962 -7.04415 20
    endloop
  endfacet
  facet normal -0.766045 -0.642787 0
    outer loop
      vertex -9.5 -16.4545 15
      vertex -10.0109 -15.8456 20
      vertex -10.0109 -15.8456 15
    endloop
  endfacet
  facet normal -0.766045 -0.642787 0
    outer loop
      vertex -10.0109 -15.8456 20
      vertex -9.5 -16.4545 15
      vertex -9.5 -16.4545 20
    endloop
  endfacet
  facet normal -0.173648 -0.984808 0
    outer loop
      vertex -8.92333 -16.5562 15
      vertex -8.92333 -16.5562 20
      vertex -9.5 -16.4545 20
    endloop
  endfacet
  facet normal -0.173648 -0.984808 -0
    outer loop
      vertex -8.92333 -16.5562 20
      vertex -8.92333 -16.5562 15
      vertex 2.60622 -18.5891 20
    endloop
  endfacet
  facet normal -0.173648 -0.984808 0
    outer loop
      vertex -8.92333 -16.5562 15
      vertex -9.5 -16.4545 20
      vertex -9.5 -16.4545 15
    endloop
  endfacet
  facet normal -0.173648 -0.984808 -0
    outer loop
      vertex 2.60622 -18.5891 20
      vertex -8.92333 -16.5562 15
      vertex 2.60622 -18.5891 15
    endloop
  endfacet
  facet normal -0.173646 -0.984808 -0
    outer loop
      vertex 2.60622 -18.5891 20
      vertex 2.60622 -18.5891 15
      vertex 3.29931 -18.7113 20
    endloop
  endfacet
  facet normal -0.173646 -0.984808 -0
    outer loop
      vertex 3.29931 -18.7113 20
      vertex 2.60622 -18.5891 15
      vertex 3.29931 -18.7113 15
    endloop
  endfacet
  facet normal 0.986361 0.164595 0
    outer loop
      vertex 19 0 25
      vertex 17.9705 6.16929 20
      vertex 17.9705 6.16929 25
    endloop
  endfacet
  facet normal 0.986361 0.164595 0
    outer loop
      vertex 17.9705 6.16929 20
      vertex 19 0 25
      vertex 19 0 20
    endloop
  endfacet
  facet normal -1 0 0
    outer loop
      vertex -18.7409 -3.1273 20
      vertex -18.7409 3.1273 25
      vertex -18.7409 3.1273 20
    endloop
  endfacet
  facet normal -1 -0 0
    outer loop
      vertex -18.7409 3.1273 25
      vertex -18.7409 -3.1273 20
      vertex -18.7409 -3.1273 25
    endloop
  endfacet
  facet normal 0.0825791 0.996585 0
    outer loop
      vertex 3.6626 18.5016 20
      vertex 4.66422 18.4186 25
      vertex 4.66422 18.4186 20
    endloop
  endfacet
  facet normal 0.0825791 0.996585 1.61286e-08
    outer loop
      vertex 2.60622 18.5891 20
      vertex 4.66422 18.4186 25
      vertex 3.6626 18.5016 20
    endloop
  endfacet
  facet normal 0.0825791 0.996585 2.98017e-09
    outer loop
      vertex 4.66422 18.4186 25
      vertex 2.60622 18.5891 20
      vertex -1.56901 18.9351 25
    endloop
  endfacet
  facet normal 0.0825791 0.996585 0
    outer loop
      vertex -1.56901 18.9351 25
      vertex 2.60622 18.5891 20
      vertex -1.56901 18.9351 20
    endloop
  endfacet
  facet normal 0.0825791 -0.996585 0
    outer loop
      vertex 2.60622 -18.5891 20
      vertex -1.56901 -18.9351 25
      vertex -1.56901 -18.9351 20
    endloop
  endfacet
  facet normal 0.0825791 -0.996585 2.98017e-09
    outer loop
      vertex -1.56901 -18.9351 25
      vertex 2.60622 -18.5891 20
      vertex 4.66422 -18.4186 25
    endloop
  endfacet
  facet normal 0.0825791 -0.996585 1.61286e-08
    outer loop
      vertex 3.6626 -18.5016 20
      vertex 4.66422 -18.4186 25
      vertex 2.60622 -18.5891 20
    endloop
  endfacet
  facet normal 0.0825791 -0.996585 0
    outer loop
      vertex 4.66422 -18.4186 25
      vertex 3.6626 -18.5016 20
      vertex 4.66422 -18.4186 20
    endloop
  endfacet
  facet normal 0.401696 -0.915773 0
    outer loop
      vertex 4.66422 -18.4186 20
      vertex 10.392 -15.9062 25
      vertex 4.66422 -18.4186 25
    endloop
  endfacet
  facet normal 0.401696 -0.915773 0
    outer loop
      vertex 10.392 -15.9062 25
      vertex 4.66422 -18.4186 20
      vertex 10.392 -15.9062 20
    endloop
  endfacet
  facet normal 0.677282 0.735724 0
    outer loop
      vertex 14.6309 12.004 20
      vertex 14.9937 11.67 25
      vertex 14.9937 11.67 20
    endloop
  endfacet
  facet normal 0.677282 0.735724 1.79596e-09
    outer loop
      vertex 14.15 12.4467 20
      vertex 14.9937 11.67 25
      vertex 14.6309 12.004 20
    endloop
  endfacet
  facet normal 0.677282 0.735724 4.78921e-08
    outer loop
      vertex 14.9937 11.67 25
      vertex 14.15 12.4467 20
      vertex 10.392 15.9062 25
    endloop
  endfacet
  facet normal 0.677281 0.735724 0
    outer loop
      vertex 10.392 15.9062 25
      vertex 14.15 12.4467 20
      vertex 10.392 15.9062 20
    endloop
  endfacet
  facet normal 0.879474 0.475947 0
    outer loop
      vertex 17.9705 6.16929 25
      vertex 14.9937 11.67 20
      vertex 14.9937 11.67 25
    endloop
  endfacet
  facet normal 0.879474 0.475947 0
    outer loop
      vertex 14.9937 11.67 20
      vertex 17.9705 6.16929 25
      vertex 17.9705 6.16929 20
    endloop
  endfacet
  facet normal 0.401696 0.915773 -0
    outer loop
      vertex 10.392 15.9062 20
      vertex 4.66422 18.4186 25
      vertex 10.392 15.9062 25
    endloop
  endfacet
  facet normal 0.401696 0.915773 0
    outer loop
      vertex 4.66422 18.4186 25
      vertex 10.392 15.9062 20
      vertex 4.66422 18.4186 20
    endloop
  endfacet
  facet normal -0.78914 0.614213 0
    outer loop
      vertex -16.71 9.043 20
      vertex -12.8683 13.9788 25
      vertex -12.8683 13.9788 20
    endloop
  endfacet
  facet normal -0.78914 0.614213 0
    outer loop
      vertex -12.8683 13.9788 25
      vertex -16.71 9.043 20
      vertex -16.71 9.043 25
    endloop
  endfacet
  facet normal -0.945817 0.324699 0
    outer loop
      vertex -17.3962 7.04415 20
      vertex -16.71 9.043 25
      vertex -16.71 9.043 20
    endloop
  endfacet
  facet normal -0.945817 0.3247 -2.82468e-07
    outer loop
      vertex -17.8542 5.71018 20
      vertex -16.71 9.043 25
      vertex -17.3962 7.04415 20
    endloop
  endfacet
  facet normal -0.945817 0.324699 0
    outer loop
      vertex -18.7409 3.1273 25
      vertex -17.8542 5.71018 20
      vertex -18.7409 3.1273 20
    endloop
  endfacet
  facet normal -0.945817 0.324699 2.71724e-07
    outer loop
      vertex -17.8542 5.71018 20
      vertex -18.7409 3.1273 25
      vertex -16.71 9.043 25
    endloop
  endfacet
  facet normal -0 0 1
    outer loop
      vertex 16.6285 3.5345 25
      vertex 19 0 25
      vertex 17.9705 6.16929 25
    endloop
  endfacet
  facet normal 0 0 1
    outer loop
      vertex 16.6285 -3.5345 25
      vertex 19 0 25
      vertex 17 0 25
    endloop
  endfacet
  facet normal 0 0 1
    outer loop
      vertex 19 0 25
      vertex 16.6285 3.5345 25
      vertex 17 0 25
    endloop
  endfacet
  facet normal 0 0 1
    outer loop
      vertex 17.9705 6.16929 25
      vertex 15.5303 6.91452 25
      vertex 16.6285 3.5345 25
    endloop
  endfacet
  facet normal 0 0 1
    outer loop
      vertex 14.9937 11.67 25
      vertex 15.5303 6.91452 25
      vertex 17.9705 6.16929 25
    endloop
  endfacet
  facet normal 0 0 1
    outer loop
      vertex 14.9937 11.67 25
      vertex 13.7533 9.99235 25
      vertex 15.5303 6.91452 25
    endloop
  endfacet
  facet normal 0 0 1
    outer loop
      vertex 14.9937 11.67 25
      vertex 11.3752 12.6335 25
      vertex 13.7533 9.99235 25
    endloop
  endfacet
  facet normal 0 0 1
    outer loop
      vertex 10.392 15.9062 25
      vertex 11.3752 12.6335 25
      vertex 14.9937 11.67 25
    endloop
  endfacet
  facet normal 0 0 1
    outer loop
      vertex 10.392 15.9062 25
      vertex 8.5 14.7224 25
      vertex 11.3752 12.6335 25
    endloop
  endfacet
  facet normal 0 0 1
    outer loop
      vertex 10.392 15.9062 25
      vertex 5.25329 16.168 25
      vertex 8.5 14.7224 25
    endloop
  endfacet
  facet normal 0 0 1
    outer loop
      vertex 4.66422 18.4186 25
      vertex 5.25329 16.168 25
      vertex 10.392 15.9062 25
    endloop
  endfacet
  facet normal 0 0 1
    outer loop
      vertex 4.66422 18.4186 25
      vertex 1.77698 16.9069 25
      vertex 5.25329 16.168 25
    endloop
  endfacet
  facet normal 0 0 1
    outer loop
      vertex -1.56901 18.9351 25
      vertex 1.77698 16.9069 25
      vertex 4.66422 18.4186 25
    endloop
  endfacet
  facet normal 0 0 1
    outer loop
      vertex -1.56901 18.9351 25
      vertex -1.77698 16.9069 25
      vertex 1.77698 16.9069 25
    endloop
  endfacet
  facet normal 0 0 1
    outer loop
      vertex -1.56901 18.9351 25
      vertex -5.25329 16.168 25
      vertex -1.77698 16.9069 25
    endloop
  endfacet
  facet normal -0 0 1
    outer loop
      vertex -7.63221 17.3997 25
      vertex -5.25329 16.168 25
      vertex -1.56901 18.9351 25
    endloop
  endfacet
  facet normal 0 0 1
    outer loop
      vertex -7.63221 17.3997 25
      vertex -8.5 14.7224 25
      vertex -5.25329 16.168 25
    endloop
  endfacet
  facet normal 0 0 1
    outer loop
      vertex -12.8683 13.9788 25
      vertex -8.5 14.7224 25
      vertex -7.63221 17.3997 25
    endloop
  endfacet
  facet normal 0 0 1
    outer loop
      vertex -8.5 14.7224 25
      vertex -12.8683 13.9788 25
      vertex -11.3752 12.6335 25
    endloop
  endfacet
  facet normal 0 0 1
    outer loop
      vertex -12.8683 13.9788 25
      vertex -13.7533 9.99235 25
      vertex -11.3752 12.6335 25
    endloop
  endfacet
  facet normal 0 0 1
    outer loop
      vertex -16.71 9.043 25
      vertex -13.7533 9.99235 25
      vertex -12.8683 13.9788 25
    endloop
  endfacet
  facet normal 0 0 1
    outer loop
      vertex -13.7533 9.99235 25
      vertex -16.71 9.043 25
      vertex -15.5303 6.91452 25
    endloop
  endfacet
  facet normal 0 0 1
    outer loop
      vertex -18.7409 3.1273 25
      vertex -15.5303 6.91452 25
      vertex -16.71 9.043 25
    endloop
  endfacet
  facet normal 0 0 1
    outer loop
      vertex -15.5303 6.91452 25
      vertex -18.7409 3.1273 25
      vertex -16.6285 3.5345 25
    endloop
  endfacet
  facet normal 0 0 1
    outer loop
      vertex -16.6285 3.5345 25
      vertex -18.7409 3.1273 25
      vertex -17 0 25
    endloop
  endfacet
  facet normal 0 0 1
    outer loop
      vertex 19 0 25
      vertex 16.6285 -3.5345 25
      vertex 17.9705 -6.16929 25
    endloop
  endfacet
  facet normal 0 0 1
    outer loop
      vertex 15.5303 -6.91452 25
      vertex 17.9705 -6.16929 25
      vertex 16.6285 -3.5345 25
    endloop
  endfacet
  facet normal -0 0 1
    outer loop
      vertex 15.5303 -6.91452 25
      vertex 14.9937 -11.67 25
      vertex 17.9705 -6.16929 25
    endloop
  endfacet
  facet normal -0 0 1
    outer loop
      vertex 13.7533 -9.99235 25
      vertex 14.9937 -11.67 25
      vertex 15.5303 -6.91452 25
    endloop
  endfacet
  facet normal 0 0 1
    outer loop
      vertex 11.3752 -12.6335 25
      vertex 14.9937 -11.67 25
      vertex 13.7533 -9.99235 25
    endloop
  endfacet
  facet normal -0 0 1
    outer loop
      vertex 11.3752 -12.6335 25
      vertex 10.392 -15.9062 25
      vertex 14.9937 -11.67 25
    endloop
  endfacet
  facet normal -0 0 1
    outer loop
      vertex 8.5 -14.7224 25
      vertex 10.392 -15.9062 25
      vertex 11.3752 -12.6335 25
    endloop
  endfacet
  facet normal 0 0 1
    outer loop
      vertex 5.25329 -16.168 25
      vertex 10.392 -15.9062 25
      vertex 8.5 -14.7224 25
    endloop
  endfacet
  facet normal -0 0 1
    outer loop
      vertex 5.25329 -16.168 25
      vertex 4.66422 -18.4186 25
      vertex 10.392 -15.9062 25
    endloop
  endfacet
  facet normal -0 0 1
    outer loop
      vertex 1.77698 -16.9069 25
      vertex 4.66422 -18.4186 25
      vertex 5.25329 -16.168 25
    endloop
  endfacet
  facet normal 0 0 1
    outer loop
      vertex 1.77698 -16.9069 25
      vertex -1.56901 -18.9351 25
      vertex 4.66422 -18.4186 25
    endloop
  endfacet
  facet normal -0 0 1
    outer loop
      vertex -1.77698 -16.9069 25
      vertex -1.56901 -18.9351 25
      vertex 1.77698 -16.9069 25
    endloop
  endfacet
  facet normal 0 0 1
    outer loop
      vertex -5.25329 -16.168 25
      vertex -1.56901 -18.9351 25
      vertex -1.77698 -16.9069 25
    endloop
  endfacet
  facet normal 0 0 1
    outer loop
      vertex -5.25329 -16.168 25
      vertex -7.63221 -17.3997 25
      vertex -1.56901 -18.9351 25
    endloop
  endfacet
  facet normal 0 0 1
    outer loop
      vertex -8.5 -14.7224 25
      vertex -7.63221 -17.3997 25
      vertex -5.25329 -16.168 25
    endloop
  endfacet
  facet normal -0 0 1
    outer loop
      vertex -12.8683 -13.9788 25
      vertex -8.5 -14.7224 25
      vertex -11.3752 -12.6335 25
    endloop
  endfacet
  facet normal 0 0 1
    outer loop
      vertex -8.5 -14.7224 25
      vertex -12.8683 -13.9788 25
      vertex -7.63221 -17.3997 25
    endloop
  endfacet
  facet normal 0 0 1
    outer loop
      vertex -13.7533 -9.99235 25
      vertex -12.8683 -13.9788 25
      vertex -11.3752 -12.6335 25
    endloop
  endfacet
  facet normal -0 0 1
    outer loop
      vertex -16.71 -9.043 25
      vertex -13.7533 -9.99235 25
      vertex -15.5303 -6.91452 25
    endloop
  endfacet
  facet normal 0 0 1
    outer loop
      vertex -13.7533 -9.99235 25
      vertex -16.71 -9.043 25
      vertex -12.8683 -13.9788 25
    endloop
  endfacet
  facet normal 0 0 1
    outer loop
      vertex -18.7409 -3.1273 25
      vertex -15.5303 -6.91452 25
      vertex -16.6285 -3.5345 25
    endloop
  endfacet
  facet normal -0 0 1
    outer loop
      vertex -18.7409 -3.1273 25
      vertex -16.6285 -3.5345 25
      vertex -17 0 25
    endloop
  endfacet
  facet normal 0 0 1
    outer loop
      vertex -18.7409 -3.1273 25
      vertex -17 0 25
      vertex -18.7409 3.1273 25
    endloop
  endfacet
  facet normal 0 0 1
    outer loop
      vertex -15.5303 -6.91452 25
      vertex -18.7409 -3.1273 25
      vertex -16.71 -9.043 25
    endloop
  endfacet
  facet normal -0.546948 0.837166 0
    outer loop
      vertex -8.92333 16.5562 20
      vertex -7.63221 17.3997 25
      vertex -7.63221 17.3997 20
    endloop
  endfacet
  facet normal -0.546948 0.837167 -2.97437e-07
    outer loop
      vertex -10.0109 15.8456 20
      vertex -7.63221 17.3997 25
      vertex -8.92333 16.5562 20
    endloop
  endfacet
  facet normal -0.546948 0.837166 1.44985e-08
    outer loop
      vertex -7.63221 17.3997 25
      vertex -10.0109 15.8456 20
      vertex -12.8683 13.9788 25
    endloop
  endfacet
  facet normal -0.546948 0.837166 0
    outer loop
      vertex -12.8683 13.9788 25
      vertex -10.0109 15.8456 20
      vertex -12.8683 13.9788 20
    endloop
  endfacet
  facet normal -0.245485 0.9694 0
    outer loop
      vertex -1.56901 18.9351 20
      vertex -7.63221 17.3997 25
      vertex -1.56901 18.9351 25
    endloop
  endfacet
  facet normal -0.245485 0.9694 0
    outer loop
      vertex -7.63221 17.3997 25
      vertex -1.56901 18.9351 20
      vertex -7.63221 17.3997 20
    endloop
  endfacet
  facet normal -0.945817 -0.324699 0
    outer loop
      vertex -17.8542 -5.71018 20
      vertex -18.7409 -3.1273 25
      vertex -18.7409 -3.1273 20
    endloop
  endfacet
  facet normal -0.945817 -0.3247 -2.82468e-07
    outer loop
      vertex -16.71 -9.043 25
      vertex -17.8542 -5.71018 20
      vertex -17.3962 -7.04415 20
    endloop
  endfacet
  facet normal -0.945817 -0.324699 -0
    outer loop
      vertex -16.71 -9.043 25
      vertex -17.3962 -7.04415 20
      vertex -16.71 -9.043 20
    endloop
  endfacet
  facet normal -0.945817 -0.324699 2.71724e-07
    outer loop
      vertex -17.8542 -5.71018 20
      vertex -16.71 -9.043 25
      vertex -18.7409 -3.1273 25
    endloop
  endfacet
  facet normal 0.677281 -0.735724 0
    outer loop
      vertex 14.15 -12.4467 20
      vertex 10.392 -15.9062 25
      vertex 10.392 -15.9062 20
    endloop
  endfacet
  facet normal 0.677282 -0.735724 4.78921e-08
    outer loop
      vertex 10.392 -15.9062 25
      vertex 14.15 -12.4467 20
      vertex 14.9937 -11.67 25
    endloop
  endfacet
  facet normal 0.677282 -0.735724 1.79596e-09
    outer loop
      vertex 14.6309 -12.004 20
      vertex 14.9937 -11.67 25
      vertex 14.15 -12.4467 20
    endloop
  endfacet
  facet normal 0.677282 -0.735724 0
    outer loop
      vertex 14.9937 -11.67 25
      vertex 14.6309 -12.004 20
      vertex 14.9937 -11.67 20
    endloop
  endfacet
  facet normal 0.879474 -0.475947 0
    outer loop
      vertex 14.9937 -11.67 25
      vertex 17.9705 -6.16929 20
      vertex 17.9705 -6.16929 25
    endloop
  endfacet
  facet normal 0.879474 -0.475947 0
    outer loop
      vertex 17.9705 -6.16929 20
      vertex 14.9937 -11.67 25
      vertex 14.9937 -11.67 20
    endloop
  endfacet
  facet normal -0.546948 -0.837166 0
    outer loop
      vertex -10.0109 -15.8456 20
      vertex -12.8683 -13.9788 25
      vertex -12.8683 -13.9788 20
    endloop
  endfacet
  facet normal -0.546948 -0.837166 6.34658e-08
    outer loop
      vertex -12.8683 -13.9788 25
      vertex -10.0109 -15.8456 20
      vertex -7.63221 -17.3997 25
    endloop
  endfacet
  facet normal -0.546948 -0.837166 1.1474e-07
    outer loop
      vertex -8.92333 -16.5562 20
      vertex -7.63221 -17.3997 25
      vertex -10.0109 -15.8456 20
    endloop
  endfacet
  facet normal -0.546948 -0.837167 -0
    outer loop
      vertex -7.63221 -17.3997 25
      vertex -8.92333 -16.5562 20
      vertex -7.63221 -17.3997 20
    endloop
  endfacet
  facet normal -0.78914 -0.614213 0
    outer loop
      vertex -12.8683 -13.9788 20
      vertex -16.71 -9.043 25
      vertex -16.71 -9.043 20
    endloop
  endfacet
  facet normal -0.78914 -0.614213 0
    outer loop
      vertex -16.71 -9.043 25
      vertex -12.8683 -13.9788 20
      vertex -12.8683 -13.9788 25
    endloop
  endfacet
  facet normal 0.986361 -0.164595 0
    outer loop
      vertex 17.9705 -6.16929 25
      vertex 19 0 20
      vertex 19 0 25
    endloop
  endfacet
  facet normal 0.986361 -0.164595 0
    outer loop
      vertex 19 0 20
      vertex 17.9705 -6.16929 25
      vertex 17.9705 -6.16929 20
    endloop
  endfacet
  facet normal -0.245485 -0.9694 0
    outer loop
      vertex -7.63221 -17.3997 20
      vertex -1.56901 -18.9351 25
      vertex -7.63221 -17.3997 25
    endloop
  endfacet
  facet normal -0.245485 -0.9694 -0
    outer loop
      vertex -1.56901 -18.9351 25
      vertex -7.63221 -17.3997 20
      vertex -1.56901 -18.9351 20
    endloop
  endfacet
endsolid OpenSCAD_Model
