solid OpenSCAD_Model
  facet normal 0 -0 -1
    outer loop
      vertex 9.5 16.4545 0
      vertex 17.5 0 0
      vertex 8.75 15.1554 0
    endloop
  endfacet
  facet normal -0 0 -1
    outer loop
      vertex 8.75 -15.1554 0
      vertex -9.5 -16.4545 0
      vertex -8.75 -15.1554 0
    endloop
  endfacet
  facet normal -0 0 -1
    outer loop
      vertex 19 0 0
      vertex 9.5 -16.4545 0
      vertex 17.5 0 0
    endloop
  endfacet
  facet normal 0 -0 -1
    outer loop
      vertex 8.75 -15.1554 0
      vertex 9.5 -16.4545 0
      vertex -9.5 -16.4545 0
    endloop
  endfacet
  facet normal -0 0 -1
    outer loop
      vertex -8.75 -15.1554 0
      vertex -9.5 -16.4545 0
      vertex -17.5 0 0
    endloop
  endfacet
  facet normal 0 0 -1
    outer loop
      vertex -9.49998 16.4545 0
      vertex -17.5 0 0
      vertex -19 0 0
    endloop
  endfacet
  facet normal -0 -0 -1
    outer loop
      vertex -17.5 0 0
      vertex -9.5 -16.4545 0
      vertex -19 0 0
    endloop
  endfacet
  facet normal 0 0 -1
    outer loop
      vertex 8.75 15.1554 0
      vertex -8.74998 15.1554 0
      vertex -9.49998 16.4545 0
    endloop
  endfacet
  facet normal -0 0 -1
    outer loop
      vertex -8.74998 15.1554 0
      vertex -17.5 0 0
      vertex -9.49998 16.4545 0
    endloop
  endfacet
  facet normal 0 0 -1
    outer loop
      vertex 8.75 15.1554 0
      vertex -9.49998 16.4545 0
      vertex 9.5 16.4545 0
    endloop
  endfacet
  facet normal 0 0 -1
    outer loop
      vertex 8.75 -15.1554 0
      vertex 17.5 0 0
      vertex 9.5 -16.4545 0
    endloop
  endfacet
  facet normal 0 0 -1
    outer loop
      vertex 17.5 0 0
      vertex 9.5 16.4545 0
      vertex 19 0 0
    endloop
  endfacet
  facet normal 0 0 1
    outer loop
      vertex -1.64102e-06 -17.5 25
      vertex -15.1554 -8.75 25
      vertex -7.44923e-06 -19 25
    endloop
  endfacet
  facet normal 0 -0 1
    outer loop
      vertex 1.64102e-06 17.5 25
      vertex 7.44923e-06 19 25
      vertex -16.4545 9.49999 25
    endloop
  endfacet
  facet normal 0 0 1
    outer loop
      vertex -15.1554 -8.75 25
      vertex -16.4545 9.49999 25
      vertex -16.4545 -9.5 25
    endloop
  endfacet
  facet normal 0 0 1
    outer loop
      vertex 1.64102e-06 17.5 25
      vertex -16.4545 9.49999 25
      vertex -15.1554 8.75 25
    endloop
  endfacet
  facet normal 0 0 1
    outer loop
      vertex 15.1554 8.75 25
      vertex 7.44923e-06 19 25
      vertex 1.64102e-06 17.5 25
    endloop
  endfacet
  facet normal 0 0 1
    outer loop
      vertex 16.4545 9.5 25
      vertex 15.1554 8.75 25
      vertex 16.4545 -9.49999 25
    endloop
  endfacet
  facet normal 0 0 1
    outer loop
      vertex 16.4545 9.5 25
      vertex 7.44923e-06 19 25
      vertex 15.1554 8.75 25
    endloop
  endfacet
  facet normal 0 0 1
    outer loop
      vertex 16.4545 -9.49999 25
      vertex 15.1554 -8.75 25
      vertex -7.44923e-06 -19 25
    endloop
  endfacet
  facet normal 0 0 1
    outer loop
      vertex 16.4545 -9.49999 25
      vertex 15.1554 8.75 25
      vertex 15.1554 -8.75 25
    endloop
  endfacet
  facet normal 0 0 1
    outer loop
      vertex -7.44923e-06 -19 25
      vertex 15.1554 -8.75 25
      vertex -1.64102e-06 -17.5 25
    endloop
  endfacet
  facet normal 0 0 1
    outer loop
      vertex -16.4545 9.49999 25
      vertex -15.1554 -8.75 25
      vertex -15.1554 8.75 25
    endloop
  endfacet
  facet normal -0 0 1
    outer loop
      vertex -16.4545 -9.5 25
      vertex -7.44923e-06 -19 25
      vertex -15.1554 -8.75 25
    endloop
  endfacet
  facet normal 0.561513 0.32419 0.761317
    outer loop
      vertex 9.5 16.4545 0
      vertex 18.5496 -4.11235 2.08333
      vertex 19 0 0
    endloop
  endfacet
  facet normal 0.618372 0.194972 -0.761316
    outer loop
      vertex 9.5 16.4545 0
      vertex 12.8362 14.0083 2.08333
      vertex 18.5496 -4.11235 2.08333
    endloop
  endfacet
  facet normal -0 0.64838 0.761317
    outer loop
      vertex -9.49998 16.4545 0
      vertex 12.8362 14.0083 2.08333
      vertex 9.5 16.4545 0
    endloop
  endfacet
  facet normal 0.140335 0.633012 -0.761316
    outer loop
      vertex -9.49998 16.4545 0
      vertex -5.7134 18.1206 2.08333
      vertex 12.8362 14.0083 2.08333
    endloop
  endfacet
  facet normal -0.561514 0.324191 0.761316
    outer loop
      vertex -19 0 0
      vertex -5.7134 18.1206 2.08333
      vertex -9.49998 16.4545 0
    endloop
  endfacet
  facet normal -0.478035 0.438039 -0.761317
    outer loop
      vertex -19 0 0
      vertex -18.5496 4.11235 2.08333
      vertex -5.7134 18.1206 2.08333
    endloop
  endfacet
  facet normal -0.561513 -0.32419 0.761317
    outer loop
      vertex -9.5 -16.4545 0
      vertex -18.5496 4.11235 2.08333
      vertex -19 0 0
    endloop
  endfacet
  facet normal -0.618372 -0.194972 -0.761316
    outer loop
      vertex -9.5 -16.4545 0
      vertex -12.8362 -14.0083 2.08333
      vertex -18.5496 4.11235 2.08333
    endloop
  endfacet
  facet normal 0 -0.64838 0.761317
    outer loop
      vertex 9.5 -16.4545 0
      vertex -12.8362 -14.0083 2.08333
      vertex -9.5 -16.4545 0
    endloop
  endfacet
  facet normal -0.140335 -0.633011 -0.761317
    outer loop
      vertex 9.5 -16.4545 0
      vertex 5.71341 -18.1206 2.08333
      vertex -12.8362 -14.0083 2.08333
    endloop
  endfacet
  facet normal 0.561514 -0.324191 0.761316
    outer loop
      vertex 19 0 0
      vertex 5.71341 -18.1206 2.08333
      vertex 9.5 -16.4545 0
    endloop
  endfacet
  facet normal 0.478036 -0.438039 -0.761317
    outer loop
      vertex 19 0 0
      vertex 18.5496 -4.11235 2.08333
      vertex 5.71341 -18.1206 2.08333
    endloop
  endfacet
  facet normal 0.58795 0.339453 -0.734226
    outer loop
      vertex -17.5 0 0
      vertex -17.0852 3.78769 2.08333
      vertex -8.75 -15.1554 0
    endloop
  endfacet
  facet normal 0.647484 0.204151 0.734225
    outer loop
      vertex -11.8228 -12.9024 2.08333
      vertex -8.75 -15.1554 0
      vertex -17.0852 3.78769 2.08333
    endloop
  endfacet
  facet normal 0.58795 -0.339454 -0.734225
    outer loop
      vertex -8.74998 15.1554 0
      vertex -5.26234 16.69 2.08333
      vertex -17.5 0 0
    endloop
  endfacet
  facet normal 0.500541 -0.458662 0.734226
    outer loop
      vertex -17.0852 3.78769 2.08333
      vertex -17.5 0 0
      vertex -5.26234 16.69 2.08333
    endloop
  endfacet
  facet normal -0 -0.678906 -0.734225
    outer loop
      vertex 8.75 15.1554 0
      vertex 11.8228 12.9024 2.08333
      vertex -8.74998 15.1554 0
    endloop
  endfacet
  facet normal -0.146942 -0.662813 0.734225
    outer loop
      vertex -5.26234 16.69 2.08333
      vertex -8.74998 15.1554 0
      vertex 11.8228 12.9024 2.08333
    endloop
  endfacet
  facet normal -0.58795 -0.339453 -0.734226
    outer loop
      vertex 17.5 0 0
      vertex 17.0852 -3.78769 2.08333
      vertex 8.75 15.1554 0
    endloop
  endfacet
  facet normal -0.647484 -0.204151 0.734225
    outer loop
      vertex 11.8228 12.9024 2.08333
      vertex 8.75 15.1554 0
      vertex 17.0852 -3.78769 2.08333
    endloop
  endfacet
  facet normal -0.58795 0.339453 -0.734225
    outer loop
      vertex 8.75 -15.1554 0
      vertex 5.26235 -16.69 2.08333
      vertex 17.5 0 0
    endloop
  endfacet
  facet normal -0.500542 0.458662 0.734226
    outer loop
      vertex 17.0852 -3.78769 2.08333
      vertex 17.5 0 0
      vertex 5.26235 -16.69 2.08333
    endloop
  endfacet
  facet normal 0 0.678906 -0.734225
    outer loop
      vertex -8.75 -15.1554 0
      vertex -11.8228 -12.9024 2.08333
      vertex 8.75 -15.1554 0
    endloop
  endfacet
  facet normal 0.146942 0.662813 0.734225
    outer loop
      vertex 5.26235 -16.69 2.08333
      vertex 8.75 -15.1554 0
      vertex -11.8228 -12.9024 2.08333
    endloop
  endfacet
  facet normal 0.618371 0.194972 0.761317
    outer loop
      vertex 12.8362 14.0083 2.08333
      vertex 17.2198 -8.02975 4.16667
      vertex 18.5496 -4.11235 2.08333
    endloop
  endfacet
  facet normal 0.645914 0.0565104 -0.761316
    outer loop
      vertex 12.8362 14.0083 2.08333
      vertex 15.5639 10.8979 4.16667
      vertex 17.2198 -8.02975 4.16667
    endloop
  endfacet
  facet normal 0.140335 0.633011 0.761317
    outer loop
      vertex -5.7134 18.1206 2.08333
      vertex 15.5639 10.8979 4.16667
      vertex 12.8362 14.0083 2.08333
    endloop
  endfacet
  facet normal 0.274018 0.587633 -0.761316
    outer loop
      vertex -5.7134 18.1206 2.08333
      vertex -1.65595 18.9277 4.16667
      vertex 15.5639 10.8979 4.16667
    endloop
  endfacet
  facet normal -0.478036 0.43804 0.761316
    outer loop
      vertex -18.5496 4.11235 2.08333
      vertex -1.65595 18.9277 4.16667
      vertex -5.7134 18.1206 2.08333
    endloop
  endfacet
  facet normal -0.371895 0.531122 -0.761317
    outer loop
      vertex -18.5496 4.11235 2.08333
      vertex -17.2198 8.02975 4.16667
      vertex -1.65595 18.9277 4.16667
    endloop
  endfacet
  facet normal -0.618371 -0.194972 0.761317
    outer loop
      vertex -12.8362 -14.0083 2.08333
      vertex -17.2198 8.02975 4.16667
      vertex -18.5496 4.11235 2.08333
    endloop
  endfacet
  facet normal -0.645914 -0.0565104 -0.761316
    outer loop
      vertex -12.8362 -14.0083 2.08333
      vertex -15.5639 -10.8979 4.16667
      vertex -17.2198 8.02975 4.16667
    endloop
  endfacet
  facet normal -0.140335 -0.633011 0.761317
    outer loop
      vertex 5.71341 -18.1206 2.08333
      vertex -15.5639 -10.8979 4.16667
      vertex -12.8362 -14.0083 2.08333
    endloop
  endfacet
  facet normal -0.274017 -0.587632 -0.761317
    outer loop
      vertex 5.71341 -18.1206 2.08333
      vertex 1.65597 -18.9277 4.16667
      vertex -15.5639 -10.8979 4.16667
    endloop
  endfacet
  facet normal 0.478036 -0.43804 0.761316
    outer loop
      vertex 18.5496 -4.11235 2.08333
      vertex 1.65597 -18.9277 4.16667
      vertex 5.71341 -18.1206 2.08333
    endloop
  endfacet
  facet normal 0.371895 -0.531122 -0.761317
    outer loop
      vertex 18.5496 -4.11235 2.08333
      vertex 17.2198 -8.02975 4.16667
      vertex 1.65597 -18.9277 4.16667
    endloop
  endfacet
  facet normal 0.647484 0.204151 -0.734226
    outer loop
      vertex -17.0852 3.78769 2.08333
      vertex -15.8604 7.39582 4.16667
      vertex -11.8228 -12.9024 2.08333
    endloop
  endfacet
  facet normal 0.676322 0.0591706 0.734225
    outer loop
      vertex -14.3352 -10.0376 4.16667
      vertex -11.8228 -12.9024 2.08333
      vertex -15.8604 7.39582 4.16667
    endloop
  endfacet
  facet normal 0.500542 -0.458663 -0.734225
    outer loop
      vertex -5.26234 16.69 2.08333
      vertex -1.52521 17.4334 4.16667
      vertex -17.0852 3.78769 2.08333
    endloop
  endfacet
  facet normal 0.389404 -0.556127 0.734226
    outer loop
      vertex -15.8604 7.39582 4.16667
      vertex -17.0852 3.78769 2.08333
      vertex -1.52521 17.4334 4.16667
    endloop
  endfacet
  facet normal -0.146942 -0.662813 -0.734225
    outer loop
      vertex 11.8228 12.9024 2.08333
      vertex 14.3352 10.0376 4.16667
      vertex -5.26234 16.69 2.08333
    endloop
  endfacet
  facet normal -0.286918 -0.615298 0.734225
    outer loop
      vertex -1.52521 17.4334 4.16667
      vertex -5.26234 16.69 2.08333
      vertex 14.3352 10.0376 4.16667
    endloop
  endfacet
  facet normal -0.647484 -0.204151 -0.734226
    outer loop
      vertex 17.0852 -3.78769 2.08333
      vertex 15.8604 -7.39582 4.16667
      vertex 11.8228 12.9024 2.08333
    endloop
  endfacet
  facet normal -0.676322 -0.0591706 0.734225
    outer loop
      vertex 14.3352 10.0376 4.16667
      vertex 11.8228 12.9024 2.08333
      vertex 15.8604 -7.39582 4.16667
    endloop
  endfacet
  facet normal -0.500542 0.458662 -0.734225
    outer loop
      vertex 5.26235 -16.69 2.08333
      vertex 1.52523 -17.4334 4.16667
      vertex 17.0852 -3.78769 2.08333
    endloop
  endfacet
  facet normal -0.389404 0.556127 0.734226
    outer loop
      vertex 15.8604 -7.39582 4.16667
      vertex 17.0852 -3.78769 2.08333
      vertex 1.52523 -17.4334 4.16667
    endloop
  endfacet
  facet normal 0.146942 0.662813 -0.734225
    outer loop
      vertex -11.8228 -12.9024 2.08333
      vertex -14.3352 -10.0376 4.16667
      vertex 5.26235 -16.69 2.08333
    endloop
  endfacet
  facet normal 0.286918 0.615298 0.734225
    outer loop
      vertex 1.52523 -17.4334 4.16667
      vertex 5.26235 -16.69 2.08333
      vertex -14.3352 -10.0376 4.16667
    endloop
  endfacet
  facet normal 0.645913 0.0565103 0.761317
    outer loop
      vertex 15.5639 10.8979 4.16667
      vertex 15.0737 -11.5665 6.25
      vertex 17.2198 -8.02975 4.16667
    endloop
  endfacet
  facet normal 0.642834 -0.0846304 -0.761316
    outer loop
      vertex 15.5639 10.8979 4.16667
      vertex 17.5537 7.27097 6.25
      vertex 15.0737 -11.5665 6.25
    endloop
  endfacet
  facet normal 0.274017 0.587632 0.761317
    outer loop
      vertex -1.65595 18.9277 4.16667
      vertex 17.5537 7.27097 6.25
      vertex 15.5639 10.8979 4.16667
    endloop
  endfacet
  facet normal 0.394709 0.514395 -0.761316
    outer loop
      vertex -1.65595 18.9277 4.16667
      vertex 2.48 18.8374 6.25
      vertex 17.5537 7.27097 6.25
    endloop
  endfacet
  facet normal -0.371896 0.531123 0.761316
    outer loop
      vertex -17.2198 8.02975 4.16667
      vertex 2.48 18.8374 6.25
      vertex -1.65595 18.9277 4.16667
    endloop
  endfacet
  facet normal -0.248124 0.599025 -0.761317
    outer loop
      vertex -17.2198 8.02975 4.16667
      vertex -15.0737 11.5665 6.25
      vertex 2.48 18.8374 6.25
    endloop
  endfacet
  facet normal -0.645913 -0.0565103 0.761317
    outer loop
      vertex -15.5639 -10.8979 4.16667
      vertex -15.0737 11.5665 6.25
      vertex -17.2198 8.02975 4.16667
    endloop
  endfacet
  facet normal -0.642834 0.0846304 -0.761316
    outer loop
      vertex -15.5639 -10.8979 4.16667
      vertex -17.5537 -7.27097 6.25
      vertex -15.0737 11.5665 6.25
    endloop
  endfacet
  facet normal -0.274017 -0.587632 0.761317
    outer loop
      vertex 1.65597 -18.9277 4.16667
      vertex -17.5537 -7.27097 6.25
      vertex -15.5639 -10.8979 4.16667
    endloop
  endfacet
  facet normal -0.394709 -0.514395 -0.761317
    outer loop
      vertex 1.65597 -18.9277 4.16667
      vertex -2.47999 -18.8374 6.25
      vertex -17.5537 -7.27097 6.25
    endloop
  endfacet
  facet normal 0.371896 -0.531123 0.761316
    outer loop
      vertex 17.2198 -8.02975 4.16667
      vertex -2.47999 -18.8374 6.25
      vertex 1.65597 -18.9277 4.16667
    endloop
  endfacet
  facet normal 0.248124 -0.599025 -0.761317
    outer loop
      vertex 17.2198 -8.02975 4.16667
      vertex 15.0737 -11.5665 6.25
      vertex -2.47999 -18.8374 6.25
    endloop
  endfacet
  facet normal 0.676322 0.0591706 -0.734226
    outer loop
      vertex -15.8604 7.39582 4.16667
      vertex -13.8837 10.6533 6.25
      vertex -14.3352 -10.0376 4.16667
    endloop
  endfacet
  facet normal 0.673098 -0.0886149 0.734225
    outer loop
      vertex -16.1679 -6.69696 6.25
      vertex -14.3352 -10.0376 4.16667
      vertex -13.8837 10.6533 6.25
    endloop
  endfacet
  facet normal 0.389404 -0.556128 -0.734225
    outer loop
      vertex -1.52521 17.4334 4.16667
      vertex 2.28422 17.3503 6.25
      vertex -15.8604 7.39582 4.16667
    endloop
  endfacet
  facet normal 0.259805 -0.627227 0.734226
    outer loop
      vertex -13.8837 10.6533 6.25
      vertex -15.8604 7.39582 4.16667
      vertex 2.28422 17.3503 6.25
    endloop
  endfacet
  facet normal -0.286918 -0.615298 -0.734225
    outer loop
      vertex 14.3352 10.0376 4.16667
      vertex 16.1679 6.69696 6.25
      vertex -1.52521 17.4334 4.16667
    endloop
  endfacet
  facet normal -0.413292 -0.538613 0.734225
    outer loop
      vertex 2.28422 17.3503 6.25
      vertex -1.52521 17.4334 4.16667
      vertex 16.1679 6.69696 6.25
    endloop
  endfacet
  facet normal -0.676322 -0.0591706 -0.734226
    outer loop
      vertex 15.8604 -7.39582 4.16667
      vertex 13.8837 -10.6533 6.25
      vertex 14.3352 10.0376 4.16667
    endloop
  endfacet
  facet normal -0.673098 0.0886149 0.734225
    outer loop
      vertex 16.1679 6.69696 6.25
      vertex 14.3352 10.0376 4.16667
      vertex 13.8837 -10.6533 6.25
    endloop
  endfacet
  facet normal -0.389404 0.556127 -0.734225
    outer loop
      vertex 1.52523 -17.4334 4.16667
      vertex -2.28421 -17.3503 6.25
      vertex 15.8604 -7.39582 4.16667
    endloop
  endfacet
  facet normal -0.259806 0.627227 0.734226
    outer loop
      vertex 13.8837 -10.6533 6.25
      vertex 15.8604 -7.39582 4.16667
      vertex -2.28421 -17.3503 6.25
    endloop
  endfacet
  facet normal 0.286918 0.615298 -0.734225
    outer loop
      vertex -14.3352 -10.0376 4.16667
      vertex -16.1679 -6.69696 6.25
      vertex 1.52523 -17.4334 4.16667
    endloop
  endfacet
  facet normal 0.413292 0.538612 0.734225
    outer loop
      vertex -2.28421 -17.3503 6.25
      vertex 1.52523 -17.4334 4.16667
      vertex -16.1679 -6.69696 6.25
    endloop
  endfacet
  facet normal 0.642833 -0.0846303 0.761317
    outer loop
      vertex 17.5537 7.27097 6.25
      vertex 12.213 -14.5548 8.33333
      vertex 15.0737 -11.5665 6.25
    endloop
  endfacet
  facet normal 0.609279 -0.221759 -0.761316
    outer loop
      vertex 17.5537 7.27097 6.25
      vertex 18.7113 3.29931 8.33333
      vertex 12.213 -14.5548 8.33333
    endloop
  endfacet
  facet normal 0.394709 0.514395 0.761317
    outer loop
      vertex 2.48 18.8374 6.25
      vertex 18.7113 3.29931 8.33333
      vertex 17.5537 7.27097 6.25
    endloop
  endfacet
  facet normal 0.496689 0.416771 -0.761316
    outer loop
      vertex 2.48 18.8374 6.25
      vertex 6.49838 17.8541 8.33333
      vertex 18.7113 3.29931 8.33333
    endloop
  endfacet
  facet normal -0.248124 0.599026 0.761316
    outer loop
      vertex -15.0737 11.5665 6.25
      vertex 6.49838 17.8541 8.33333
      vertex 2.48 18.8374 6.25
    endloop
  endfacet
  facet normal -0.112589 0.638529 -0.761317
    outer loop
      vertex -15.0737 11.5665 6.25
      vertex -12.213 14.5548 8.33333
      vertex 6.49838 17.8541 8.33333
    endloop
  endfacet
  facet normal -0.642833 0.0846303 0.761317
    outer loop
      vertex -17.5537 -7.27097 6.25
      vertex -12.213 14.5548 8.33333
      vertex -15.0737 11.5665 6.25
    endloop
  endfacet
  facet normal -0.609279 0.221759 -0.761316
    outer loop
      vertex -17.5537 -7.27097 6.25
      vertex -18.7113 -3.29931 8.33333
      vertex -12.213 14.5548 8.33333
    endloop
  endfacet
  facet normal -0.394709 -0.514395 0.761317
    outer loop
      vertex -2.47999 -18.8374 6.25
      vertex -18.7113 -3.29931 8.33333
      vertex -17.5537 -7.27097 6.25
    endloop
  endfacet
  facet normal -0.496688 -0.416771 -0.761317
    outer loop
      vertex -2.47999 -18.8374 6.25
      vertex -6.49837 -17.8542 8.33333
      vertex -18.7113 -3.29931 8.33333
    endloop
  endfacet
  facet normal 0.248124 -0.599026 0.761316
    outer loop
      vertex 15.0737 -11.5665 6.25
      vertex -6.49837 -17.8542 8.33333
      vertex -2.47999 -18.8374 6.25
    endloop
  endfacet
  facet normal 0.11259 -0.63853 -0.761317
    outer loop
      vertex 15.0737 -11.5665 6.25
      vertex 12.213 -14.5548 8.33333
      vertex -6.49837 -17.8542 8.33333
    endloop
  endfacet
  facet normal 0.673098 -0.0886149 -0.734226
    outer loop
      vertex -13.8837 10.6533 6.25
      vertex -11.2488 13.4058 8.33333
      vertex -16.1679 -6.69696 6.25
    endloop
  endfacet
  facet normal 0.637963 -0.232199 0.734225
    outer loop
      vertex -17.2341 -3.03884 8.33333
      vertex -16.1679 -6.69696 6.25
      vertex -11.2488 13.4058 8.33333
    endloop
  endfacet
  facet normal 0.259806 -0.627228 -0.734225
    outer loop
      vertex 2.28422 17.3503 6.25
      vertex 5.98536 16.4446 8.33333
      vertex -13.8837 10.6533 6.25
    endloop
  endfacet
  facet normal 0.11789 -0.668591 0.734226
    outer loop
      vertex -11.2488 13.4058 8.33333
      vertex -13.8837 10.6533 6.25
      vertex 5.98536 16.4446 8.33333
    endloop
  endfacet
  facet normal -0.413292 -0.538612 -0.734225
    outer loop
      vertex 16.1679 6.69696 6.25
      vertex 17.2341 3.03884 8.33333
      vertex 2.28422 17.3503 6.25
    endloop
  endfacet
  facet normal -0.520072 -0.436393 0.734225
    outer loop
      vertex 5.98536 16.4446 8.33333
      vertex 2.28422 17.3503 6.25
      vertex 17.2341 3.03884 8.33333
    endloop
  endfacet
  facet normal -0.673098 0.0886149 -0.734226
    outer loop
      vertex 13.8837 -10.6533 6.25
      vertex 11.2488 -13.4058 8.33333
      vertex 16.1679 6.69696 6.25
    endloop
  endfacet
  facet normal -0.637963 0.232199 0.734225
    outer loop
      vertex 17.2341 3.03884 8.33333
      vertex 16.1679 6.69696 6.25
      vertex 11.2488 -13.4058 8.33333
    endloop
  endfacet
  facet normal -0.259806 0.627227 -0.734225
    outer loop
      vertex -2.28421 -17.3503 6.25
      vertex -5.98535 -16.4446 8.33333
      vertex 13.8837 -10.6533 6.25
    endloop
  endfacet
  facet normal -0.117891 0.668592 0.734226
    outer loop
      vertex 11.2488 -13.4058 8.33333
      vertex 13.8837 -10.6533 6.25
      vertex -5.98535 -16.4446 8.33333
    endloop
  endfacet
  facet normal 0.413292 0.538612 -0.734225
    outer loop
      vertex -16.1679 -6.69696 6.25
      vertex -17.2341 -3.03884 8.33333
      vertex -2.28421 -17.3503 6.25
    endloop
  endfacet
  facet normal 0.520072 0.436392 0.734225
    outer loop
      vertex -5.98535 -16.4446 8.33333
      vertex -2.28421 -17.3503 6.25
      vertex -17.2341 -3.03884 8.33333
    endloop
  endfacet
  facet normal 0.609278 -0.221759 0.761317
    outer loop
      vertex 18.7113 3.29931 8.33333
      vertex 8.77322 -16.8532 10.4167
      vertex 12.213 -14.5548 8.33333
    endloop
  endfacet
  facet normal 0.546839 -0.348375 -0.761316
    outer loop
      vertex 18.7113 3.29931 8.33333
      vertex 18.9819 -0.828775 10.4167
      vertex 8.77322 -16.8532 10.4167
    endloop
  endfacet
  facet normal 0.496688 0.416771 0.761317
    outer loop
      vertex 6.49838 17.8541 8.33333
      vertex 18.9819 -0.828775 10.4167
      vertex 18.7113 3.29931 8.33333
    endloop
  endfacet
  facet normal 0.575121 0.299389 -0.761316
    outer loop
      vertex 6.49838 17.8541 8.33333
      vertex 10.2087 16.0244 10.4167
      vertex 18.9819 -0.828775 10.4167
    endloop
  endfacet
  facet normal -0.112589 0.638531 0.761316
    outer loop
      vertex -12.213 14.5548 8.33333
      vertex 10.2087 16.0244 10.4167
      vertex 6.49838 17.8541 8.33333
    endloop
  endfacet
  facet normal 0.0282826 0.647763 -0.761317
    outer loop
      vertex -12.213 14.5548 8.33333
      vertex -8.77322 16.8532 10.4167
      vertex 10.2087 16.0244 10.4167
    endloop
  endfacet
  facet normal -0.609278 0.221759 0.761317
    outer loop
      vertex -18.7113 -3.29931 8.33333
      vertex -8.77322 16.8532 10.4167
      vertex -12.213 14.5548 8.33333
    endloop
  endfacet
  facet normal -0.546839 0.348375 -0.761316
    outer loop
      vertex -18.7113 -3.29931 8.33333
      vertex -18.9819 0.828775 10.4167
      vertex -8.77322 16.8532 10.4167
    endloop
  endfacet
  facet normal -0.496688 -0.416771 0.761317
    outer loop
      vertex -6.49837 -17.8542 8.33333
      vertex -18.9819 0.828775 10.4167
      vertex -18.7113 -3.29931 8.33333
    endloop
  endfacet
  facet normal -0.57512 -0.299389 -0.761317
    outer loop
      vertex -6.49837 -17.8542 8.33333
      vertex -10.2087 -16.0244 10.4167
      vertex -18.9819 0.828775 10.4167
    endloop
  endfacet
  facet normal 0.11259 -0.638531 0.761316
    outer loop
      vertex 12.213 -14.5548 8.33333
      vertex -10.2087 -16.0244 10.4167
      vertex -6.49837 -17.8542 8.33333
    endloop
  endfacet
  facet normal -0.0282822 -0.647763 -0.761317
    outer loop
      vertex 12.213 -14.5548 8.33333
      vertex 8.77322 -16.8532 10.4167
      vertex -10.2087 -16.0244 10.4167
    endloop
  endfacet
  facet normal 0.637963 -0.232199 -0.734226
    outer loop
      vertex -11.2488 13.4058 8.33333
      vertex -8.0806 15.5227 10.4167
      vertex -17.2341 -3.03884 8.33333
    endloop
  endfacet
  facet normal 0.572583 -0.364776 0.734225
    outer loop
      vertex -17.4833 0.763341 10.4167
      vertex -17.2341 -3.03884 8.33333
      vertex -8.0806 15.5227 10.4167
    endloop
  endfacet
  facet normal 0.11789 -0.668592 -0.734225
    outer loop
      vertex 5.98536 16.4446 8.33333
      vertex 9.40275 14.7593 10.4167
      vertex -11.2488 13.4058 8.33333
    endloop
  endfacet
  facet normal -0.029614 -0.678259 0.734226
    outer loop
      vertex -8.0806 15.5227 10.4167
      vertex -11.2488 13.4058 8.33333
      vertex 9.40275 14.7593 10.4167
    endloop
  endfacet
  facet normal -0.520072 -0.436392 -0.734225
    outer loop
      vertex 17.2341 3.03884 8.33333
      vertex 17.4833 -0.763341 10.4167
      vertex 5.98536 16.4446 8.33333
    endloop
  endfacet
  facet normal -0.602197 -0.313484 0.734225
    outer loop
      vertex 9.40275 14.7593 10.4167
      vertex 5.98536 16.4446 8.33333
      vertex 17.4833 -0.763341 10.4167
    endloop
  endfacet
  facet normal -0.637963 0.232199 -0.734226
    outer loop
      vertex 11.2488 -13.4058 8.33333
      vertex 8.0806 -15.5227 10.4167
      vertex 17.2341 3.03884 8.33333
    endloop
  endfacet
  facet normal -0.572583 0.364776 0.734225
    outer loop
      vertex 17.4833 -0.763341 10.4167
      vertex 17.2341 3.03884 8.33333
      vertex 8.0806 -15.5227 10.4167
    endloop
  endfacet
  facet normal -0.117891 0.668592 -0.734225
    outer loop
      vertex -5.98535 -16.4446 8.33333
      vertex -9.40274 -14.7593 10.4167
      vertex 11.2488 -13.4058 8.33333
    endloop
  endfacet
  facet normal 0.0296135 0.678259 0.734226
    outer loop
      vertex 8.0806 -15.5227 10.4167
      vertex 11.2488 -13.4058 8.33333
      vertex -9.40274 -14.7593 10.4167
    endloop
  endfacet
  facet normal 0.520072 0.436392 -0.734225
    outer loop
      vertex -17.2341 -3.03884 8.33333
      vertex -17.4833 0.763341 10.4167
      vertex -5.98535 -16.4446 8.33333
    endloop
  endfacet
  facet normal 0.602197 0.313484 0.734225
    outer loop
      vertex -9.40274 -14.7593 10.4167
      vertex -5.98535 -16.4446 8.33333
      vertex -17.4833 0.763341 10.4167
    endloop
  endfacet
  facet normal 0.546838 -0.348374 0.761317
    outer loop
      vertex 18.9819 -0.828775 10.4167
      vertex 4.91756 -18.3526 12.5
      vertex 8.77322 -16.8532 10.4167
    endloop
  endfacet
  facet normal 0.458475 -0.458474 -0.761316
    outer loop
      vertex 18.9819 -0.828775 10.4167
      vertex 18.3526 -4.91757 12.5
      vertex 4.91756 -18.3526 12.5
    endloop
  endfacet
  facet normal 0.57512 0.299389 0.761317
    outer loop
      vertex 10.2087 16.0244 10.4167
      vertex 18.3526 -4.91757 12.5
      vertex 18.9819 -0.828775 10.4167
    endloop
  endfacet
  facet normal 0.626288 0.167813 -0.761316
    outer loop
      vertex 10.2087 16.0244 10.4167
      vertex 13.435 13.435 12.5
      vertex 18.3526 -4.91757 12.5
    endloop
  endfacet
  facet normal 0.0282827 0.647764 0.761316
    outer loop
      vertex -8.77322 16.8532 10.4167
      vertex 13.435 13.435 12.5
      vertex 10.2087 16.0244 10.4167
    endloop
  endfacet
  facet normal 0.167814 0.626287 -0.761317
    outer loop
      vertex -8.77322 16.8532 10.4167
      vertex -4.91756 18.3526 12.5
      vertex 13.435 13.435 12.5
    endloop
  endfacet
  facet normal -0.546838 0.348374 0.761317
    outer loop
      vertex -18.9819 0.828775 10.4167
      vertex -4.91756 18.3526 12.5
      vertex -8.77322 16.8532 10.4167
    endloop
  endfacet
  facet normal -0.458475 0.458474 -0.761316
    outer loop
      vertex -18.9819 0.828775 10.4167
      vertex -18.3526 4.91757 12.5
      vertex -4.91756 18.3526 12.5
    endloop
  endfacet
  facet normal -0.57512 -0.299389 0.761317
    outer loop
      vertex -10.2087 -16.0244 10.4167
      vertex -18.3526 4.91757 12.5
      vertex -18.9819 0.828775 10.4167
    endloop
  endfacet
  facet normal -0.626287 -0.167813 -0.761317
    outer loop
      vertex -10.2087 -16.0244 10.4167
      vertex -13.435 -13.435 12.5
      vertex -18.3526 4.91757 12.5
    endloop
  endfacet
  facet normal -0.0282822 -0.647764 0.761316
    outer loop
      vertex 8.77322 -16.8532 10.4167
      vertex -13.435 -13.435 12.5
      vertex -10.2087 -16.0244 10.4167
    endloop
  endfacet
  facet normal -0.167813 -0.626287 -0.761317
    outer loop
      vertex 8.77322 -16.8532 10.4167
      vertex 4.91756 -18.3526 12.5
      vertex -13.435 -13.435 12.5
    endloop
  endfacet
  facet normal 0.572583 -0.364776 -0.734226
    outer loop
      vertex -8.0806 15.5227 10.4167
      vertex -4.52933 16.9037 12.5
      vertex -17.4833 0.763341 10.4167
    endloop
  endfacet
  facet normal 0.480059 -0.480059 0.734225
    outer loop
      vertex -16.9037 4.52933 12.5
      vertex -17.4833 0.763341 10.4167
      vertex -4.52933 16.9037 12.5
    endloop
  endfacet
  facet normal -0.029614 -0.67826 -0.734225
    outer loop
      vertex 9.40275 14.7593 10.4167
      vertex 12.3744 12.3744 12.5
      vertex -8.0806 15.5227 10.4167
    endloop
  endfacet
  facet normal -0.175714 -0.655772 0.734226
    outer loop
      vertex -4.52933 16.9037 12.5
      vertex -8.0806 15.5227 10.4167
      vertex 12.3744 12.3744 12.5
    endloop
  endfacet
  facet normal -0.602197 -0.313484 -0.734225
    outer loop
      vertex 17.4833 -0.763341 10.4167
      vertex 16.9037 -4.52933 12.5
      vertex 9.40275 14.7593 10.4167
    endloop
  endfacet
  facet normal -0.655773 -0.175714 0.734225
    outer loop
      vertex 12.3744 12.3744 12.5
      vertex 9.40275 14.7593 10.4167
      vertex 16.9037 -4.52933 12.5
    endloop
  endfacet
  facet normal -0.572583 0.364776 -0.734226
    outer loop
      vertex 8.0806 -15.5227 10.4167
      vertex 4.52933 -16.9037 12.5
      vertex 17.4833 -0.763341 10.4167
    endloop
  endfacet
  facet normal -0.480059 0.480059 0.734225
    outer loop
      vertex 16.9037 -4.52933 12.5
      vertex 17.4833 -0.763341 10.4167
      vertex 4.52933 -16.9037 12.5
    endloop
  endfacet
  facet normal 0.0296135 0.67826 -0.734225
    outer loop
      vertex -9.40274 -14.7593 10.4167
      vertex -12.3744 -12.3744 12.5
      vertex 8.0806 -15.5227 10.4167
    endloop
  endfacet
  facet normal 0.175714 0.655772 0.734226
    outer loop
      vertex 4.52933 -16.9037 12.5
      vertex 8.0806 -15.5227 10.4167
      vertex -12.3744 -12.3744 12.5
    endloop
  endfacet
  facet normal 0.602197 0.313484 -0.734225
    outer loop
      vertex -17.4833 0.763341 10.4167
      vertex -16.9037 4.52933 12.5
      vertex -9.40274 -14.7593 10.4167
    endloop
  endfacet
  facet normal 0.655773 0.175714 0.734225
    outer loop
      vertex -12.3744 -12.3744 12.5
      vertex -9.40274 -14.7593 10.4167
      vertex -16.9037 4.52933 12.5
    endloop
  endfacet
  facet normal 0.458474 -0.458474 0.761317
    outer loop
      vertex 18.3526 -4.91757 12.5
      vertex 0.828768 -18.9819 14.5833
      vertex 4.91756 -18.3526 12.5
    endloop
  endfacet
  facet normal 0.348375 -0.546839 -0.761316
    outer loop
      vertex 18.3526 -4.91757 12.5
      vertex 16.8532 -8.77322 14.5833
      vertex 0.828768 -18.9819 14.5833
    endloop
  endfacet
  facet normal 0.626287 0.167813 0.761317
    outer loop
      vertex 13.435 13.435 12.5
      vertex 16.8532 -8.77322 14.5833
      vertex 18.3526 -4.91757 12.5
    endloop
  endfacet
  facet normal 0.647764 0.028282 -0.761316
    outer loop
      vertex 13.435 13.435 12.5
      vertex 16.0244 10.2087 14.5833
      vertex 16.8532 -8.77322 14.5833
    endloop
  endfacet
  facet normal 0.167814 0.626288 0.761316
    outer loop
      vertex -4.91756 18.3526 12.5
      vertex 16.0244 10.2087 14.5833
      vertex 13.435 13.435 12.5
    endloop
  endfacet
  facet normal 0.299389 0.575119 -0.761317
    outer loop
      vertex -4.91756 18.3526 12.5
      vertex -0.828768 18.9819 14.5833
      vertex 16.0244 10.2087 14.5833
    endloop
  endfacet
  facet normal -0.458474 0.458474 0.761317
    outer loop
      vertex -18.3526 4.91757 12.5
      vertex -0.828768 18.9819 14.5833
      vertex -4.91756 18.3526 12.5
    endloop
  endfacet
  facet normal -0.348375 0.546839 -0.761316
    outer loop
      vertex -18.3526 4.91757 12.5
      vertex -16.8532 8.77322 14.5833
      vertex -0.828768 18.9819 14.5833
    endloop
  endfacet
  facet normal -0.626287 -0.167813 0.761317
    outer loop
      vertex -13.435 -13.435 12.5
      vertex -16.8532 8.77322 14.5833
      vertex -18.3526 4.91757 12.5
    endloop
  endfacet
  facet normal -0.647763 -0.028282 -0.761317
    outer loop
      vertex -13.435 -13.435 12.5
      vertex -16.0244 -10.2087 14.5833
      vertex -16.8532 8.77322 14.5833
    endloop
  endfacet
  facet normal -0.167814 -0.626288 0.761316
    outer loop
      vertex 4.91756 -18.3526 12.5
      vertex -16.0244 -10.2087 14.5833
      vertex -13.435 -13.435 12.5
    endloop
  endfacet
  facet normal -0.299389 -0.57512 -0.761317
    outer loop
      vertex 4.91756 -18.3526 12.5
      vertex 0.828768 -18.9819 14.5833
      vertex -16.0244 -10.2087 14.5833
    endloop
  endfacet
  facet normal 0.480059 -0.480059 -0.734226
    outer loop
      vertex -4.52933 16.9037 12.5
      vertex -0.763339 17.4833 14.5833
      vertex -16.9037 4.52933 12.5
    endloop
  endfacet
  facet normal 0.364776 -0.572583 0.734225
    outer loop
      vertex -15.5227 8.0806 14.5833
      vertex -16.9037 4.52933 12.5
      vertex -0.763339 17.4833 14.5833
    endloop
  endfacet
  facet normal -0.175714 -0.655773 -0.734225
    outer loop
      vertex 12.3744 12.3744 12.5
      vertex 14.7593 9.40273 14.5833
      vertex -4.52933 16.9037 12.5
    endloop
  endfacet
  facet normal -0.313484 -0.602196 0.734226
    outer loop
      vertex -0.763339 17.4833 14.5833
      vertex -4.52933 16.9037 12.5
      vertex 14.7593 9.40273 14.5833
    endloop
  endfacet
  facet normal -0.655773 -0.175714 -0.734225
    outer loop
      vertex 16.9037 -4.52933 12.5
      vertex 15.5227 -8.0806 14.5833
      vertex 12.3744 12.3744 12.5
    endloop
  endfacet
  facet normal -0.67826 -0.0296135 0.734225
    outer loop
      vertex 14.7593 9.40273 14.5833
      vertex 12.3744 12.3744 12.5
      vertex 15.5227 -8.0806 14.5833
    endloop
  endfacet
  facet normal -0.480059 0.480059 -0.734226
    outer loop
      vertex 4.52933 -16.9037 12.5
      vertex 0.763339 -17.4833 14.5833
      vertex 16.9037 -4.52933 12.5
    endloop
  endfacet
  facet normal -0.364776 0.572583 0.734225
    outer loop
      vertex 15.5227 -8.0806 14.5833
      vertex 16.9037 -4.52933 12.5
      vertex 0.763339 -17.4833 14.5833
    endloop
  endfacet
  facet normal 0.175714 0.655773 -0.734225
    outer loop
      vertex -12.3744 -12.3744 12.5
      vertex -14.7593 -9.40274 14.5833
      vertex 4.52933 -16.9037 12.5
    endloop
  endfacet
  facet normal 0.313484 0.602197 0.734226
    outer loop
      vertex 0.763339 -17.4833 14.5833
      vertex 4.52933 -16.9037 12.5
      vertex -14.7593 -9.40274 14.5833
    endloop
  endfacet
  facet normal 0.655773 0.175714 -0.734225
    outer loop
      vertex -16.9037 4.52933 12.5
      vertex -15.5227 8.0806 14.5833
      vertex -12.3744 -12.3744 12.5
    endloop
  endfacet
  facet normal 0.67826 0.0296135 0.734225
    outer loop
      vertex -14.7593 -9.40274 14.5833
      vertex -12.3744 -12.3744 12.5
      vertex -15.5227 8.0806 14.5833
    endloop
  endfacet
  facet normal 0.348375 -0.546838 0.761317
    outer loop
      vertex 16.8532 -8.77322 14.5833
      vertex -3.29932 -18.7113 16.6667
      vertex 0.828768 -18.9819 14.5833
    endloop
  endfacet
  facet normal 0.22176 -0.609279 -0.761316
    outer loop
      vertex 16.8532 -8.77322 14.5833
      vertex 14.5548 -12.213 16.6667
      vertex -3.29932 -18.7113 16.6667
    endloop
  endfacet
  facet normal 0.647763 0.028282 0.761317
    outer loop
      vertex 16.0244 10.2087 14.5833
      vertex 14.5548 -12.213 16.6667
      vertex 16.8532 -8.77322 14.5833
    endloop
  endfacet
  facet normal 0.63853 -0.11259 -0.761316
    outer loop
      vertex 16.0244 10.2087 14.5833
      vertex 17.8541 6.49837 16.6667
      vertex 14.5548 -12.213 16.6667
    endloop
  endfacet
  facet normal 0.29939 0.575121 0.761316
    outer loop
      vertex -0.828768 18.9819 14.5833
      vertex 17.8541 6.49837 16.6667
      vertex 16.0244 10.2087 14.5833
    endloop
  endfacet
  facet normal 0.416771 0.496687 -0.761317
    outer loop
      vertex -0.828768 18.9819 14.5833
      vertex 3.29932 18.7113 16.6667
      vertex 17.8541 6.49837 16.6667
    endloop
  endfacet
  facet normal -0.348375 0.546838 0.761317
    outer loop
      vertex -16.8532 8.77322 14.5833
      vertex 3.29932 18.7113 16.6667
      vertex -0.828768 18.9819 14.5833
    endloop
  endfacet
  facet normal -0.22176 0.609279 -0.761316
    outer loop
      vertex -16.8532 8.77322 14.5833
      vertex -14.5548 12.213 16.6667
      vertex 3.29932 18.7113 16.6667
    endloop
  endfacet
  facet normal -0.647763 -0.028282 0.761317
    outer loop
      vertex -16.0244 -10.2087 14.5833
      vertex -14.5548 12.213 16.6667
      vertex -16.8532 8.77322 14.5833
    endloop
  endfacet
  facet normal -0.63853 0.11259 -0.761317
    outer loop
      vertex -16.0244 -10.2087 14.5833
      vertex -17.8541 -6.49839 16.6667
      vertex -14.5548 12.213 16.6667
    endloop
  endfacet
  facet normal -0.299389 -0.575121 0.761316
    outer loop
      vertex 0.828768 -18.9819 14.5833
      vertex -17.8541 -6.49839 16.6667
      vertex -16.0244 -10.2087 14.5833
    endloop
  endfacet
  facet normal -0.416771 -0.496688 -0.761317
    outer loop
      vertex 0.828768 -18.9819 14.5833
      vertex -3.29932 -18.7113 16.6667
      vertex -17.8541 -6.49839 16.6667
    endloop
  endfacet
  facet normal 0.364776 -0.572583 -0.734226
    outer loop
      vertex -0.763339 17.4833 14.5833
      vertex 3.03884 17.2341 16.6667
      vertex -15.5227 8.0806 14.5833
    endloop
  endfacet
  facet normal 0.2322 -0.637963 0.734225
    outer loop
      vertex -13.4058 11.2488 16.6667
      vertex -15.5227 8.0806 14.5833
      vertex 3.03884 17.2341 16.6667
    endloop
  endfacet
  facet normal -0.313484 -0.602197 -0.734225
    outer loop
      vertex 14.7593 9.40273 14.5833
      vertex 16.4446 5.98534 16.6667
      vertex -0.763339 17.4833 14.5833
    endloop
  endfacet
  facet normal -0.436392 -0.520071 0.734226
    outer loop
      vertex 3.03884 17.2341 16.6667
      vertex -0.763339 17.4833 14.5833
      vertex 16.4446 5.98534 16.6667
    endloop
  endfacet
  facet normal -0.67826 -0.0296135 -0.734225
    outer loop
      vertex 15.5227 -8.0806 14.5833
      vertex 13.4058 -11.2488 16.6667
      vertex 14.7593 9.40273 14.5833
    endloop
  endfacet
  facet normal -0.668592 0.117891 0.734225
    outer loop
      vertex 16.4446 5.98534 16.6667
      vertex 14.7593 9.40273 14.5833
      vertex 13.4058 -11.2488 16.6667
    endloop
  endfacet
  facet normal -0.364776 0.572583 -0.734226
    outer loop
      vertex 0.763339 -17.4833 14.5833
      vertex -3.03884 -17.2341 16.6667
      vertex 15.5227 -8.0806 14.5833
    endloop
  endfacet
  facet normal -0.2322 0.637963 0.734225
    outer loop
      vertex 13.4058 -11.2488 16.6667
      vertex 15.5227 -8.0806 14.5833
      vertex -3.03884 -17.2341 16.6667
    endloop
  endfacet
  facet normal 0.313484 0.602197 -0.734225
    outer loop
      vertex -14.7593 -9.40274 14.5833
      vertex -16.4446 -5.98535 16.6667
      vertex 0.763339 -17.4833 14.5833
    endloop
  endfacet
  facet normal 0.436392 0.520072 0.734226
    outer loop
      vertex -3.03884 -17.2341 16.6667
      vertex 0.763339 -17.4833 14.5833
      vertex -16.4446 -5.98535 16.6667
    endloop
  endfacet
  facet normal 0.67826 0.0296135 -0.734225
    outer loop
      vertex -15.5227 8.0806 14.5833
      vertex -13.4058 11.2488 16.6667
      vertex -14.7593 -9.40274 14.5833
    endloop
  endfacet
  facet normal 0.668592 -0.117891 0.734225
    outer loop
      vertex -16.4446 -5.98535 16.6667
      vertex -14.7593 -9.40274 14.5833
      vertex -13.4058 11.2488 16.6667
    endloop
  endfacet
  facet normal 0.221759 -0.609278 0.761317
    outer loop
      vertex 14.5548 -12.213 16.6667
      vertex -7.27099 -17.5537 18.75
      vertex -3.29932 -18.7113 16.6667
    endloop
  endfacet
  facet normal 0.0846309 -0.642834 -0.761316
    outer loop
      vertex 14.5548 -12.213 16.6667
      vertex 11.5665 -15.0737 18.75
      vertex -7.27099 -17.5537 18.75
    endloop
  endfacet
  facet normal 0.63853 -0.11259 0.761317
    outer loop
      vertex 17.8541 6.49837 16.6667
      vertex 11.5665 -15.0737 18.75
      vertex 14.5548 -12.213 16.6667
    endloop
  endfacet
  facet normal 0.599026 -0.248125 -0.761316
    outer loop
      vertex 17.8541 6.49837 16.6667
      vertex 18.8374 2.47999 18.75
      vertex 11.5665 -15.0737 18.75
    endloop
  endfacet
  facet normal 0.416772 0.496688 0.761316
    outer loop
      vertex 3.29932 18.7113 16.6667
      vertex 18.8374 2.47999 18.75
      vertex 17.8541 6.49837 16.6667
    endloop
  endfacet
  facet normal 0.514395 0.394708 -0.761317
    outer loop
      vertex 3.29932 18.7113 16.6667
      vertex 7.27099 17.5537 18.75
      vertex 18.8374 2.47999 18.75
    endloop
  endfacet
  facet normal -0.221759 0.609278 0.761317
    outer loop
      vertex -14.5548 12.213 16.6667
      vertex 7.27099 17.5537 18.75
      vertex 3.29932 18.7113 16.6667
    endloop
  endfacet
  facet normal -0.0846309 0.642834 -0.761316
    outer loop
      vertex -14.5548 12.213 16.6667
      vertex -11.5665 15.0737 18.75
      vertex 7.27099 17.5537 18.75
    endloop
  endfacet
  facet normal -0.63853 0.11259 0.761317
    outer loop
      vertex -17.8541 -6.49839 16.6667
      vertex -11.5665 15.0737 18.75
      vertex -14.5548 12.213 16.6667
    endloop
  endfacet
  facet normal -0.599025 0.248124 -0.761317
    outer loop
      vertex -17.8541 -6.49839 16.6667
      vertex -18.8374 -2.48 18.75
      vertex -11.5665 15.0737 18.75
    endloop
  endfacet
  facet normal -0.416771 -0.496688 0.761316
    outer loop
      vertex -3.29932 -18.7113 16.6667
      vertex -18.8374 -2.48 18.75
      vertex -17.8541 -6.49839 16.6667
    endloop
  endfacet
  facet normal -0.514395 -0.394709 -0.761317
    outer loop
      vertex -3.29932 -18.7113 16.6667
      vertex -7.27099 -17.5537 18.75
      vertex -18.8374 -2.48 18.75
    endloop
  endfacet
  facet normal 0.232199 -0.637963 -0.734226
    outer loop
      vertex 3.03884 17.2341 16.6667
      vertex 6.69696 16.1679 18.75
      vertex -13.4058 11.2488 16.6667
    endloop
  endfacet
  facet normal 0.0886151 -0.673098 0.734225
    outer loop
      vertex -10.6533 13.8837 18.75
      vertex -13.4058 11.2488 16.6667
      vertex 6.69696 16.1679 18.75
    endloop
  endfacet
  facet normal -0.436393 -0.520072 -0.734225
    outer loop
      vertex 16.4446 5.98534 16.6667
      vertex 17.3503 2.2842 18.75
      vertex 3.03884 17.2341 16.6667
    endloop
  endfacet
  facet normal -0.538612 -0.413291 0.734226
    outer loop
      vertex 6.69696 16.1679 18.75
      vertex 3.03884 17.2341 16.6667
      vertex 17.3503 2.2842 18.75
    endloop
  endfacet
  facet normal -0.668592 0.117891 -0.734225
    outer loop
      vertex 13.4058 -11.2488 16.6667
      vertex 10.6533 -13.8837 18.75
      vertex 16.4446 5.98534 16.6667
    endloop
  endfacet
  facet normal -0.627228 0.259806 0.734225
    outer loop
      vertex 17.3503 2.2842 18.75
      vertex 16.4446 5.98534 16.6667
      vertex 10.6533 -13.8837 18.75
    endloop
  endfacet
  facet normal -0.232199 0.637963 -0.734226
    outer loop
      vertex -3.03884 -17.2341 16.6667
      vertex -6.69696 -16.1679 18.75
      vertex 13.4058 -11.2488 16.6667
    endloop
  endfacet
  facet normal -0.0886151 0.673098 0.734225
    outer loop
      vertex 10.6533 -13.8837 18.75
      vertex 13.4058 -11.2488 16.6667
      vertex -6.69696 -16.1679 18.75
    endloop
  endfacet
  facet normal 0.436392 0.520072 -0.734225
    outer loop
      vertex -16.4446 -5.98535 16.6667
      vertex -17.3503 -2.28421 18.75
      vertex -3.03884 -17.2341 16.6667
    endloop
  endfacet
  facet normal 0.538612 0.413292 0.734226
    outer loop
      vertex -6.69696 -16.1679 18.75
      vertex -3.03884 -17.2341 16.6667
      vertex -17.3503 -2.28421 18.75
    endloop
  endfacet
  facet normal 0.668592 -0.117891 -0.734225
    outer loop
      vertex -13.4058 11.2488 16.6667
      vertex -10.6533 13.8837 18.75
      vertex -16.4446 -5.98535 16.6667
    endloop
  endfacet
  facet normal 0.627227 -0.259806 0.734225
    outer loop
      vertex -17.3503 -2.28421 18.75
      vertex -16.4446 -5.98535 16.6667
      vertex -10.6533 13.8837 18.75
    endloop
  endfacet
  facet normal 0.0846308 -0.642833 0.761317
    outer loop
      vertex 11.5665 -15.0737 18.75
      vertex -10.898 -15.5639 20.8333
      vertex -7.27099 -17.5537 18.75
    endloop
  endfacet
  facet normal -0.0565099 -0.645914 -0.761316
    outer loop
      vertex 11.5665 -15.0737 18.75
      vertex 8.02973 -17.2198 20.8333
      vertex -10.898 -15.5639 20.8333
    endloop
  endfacet
  facet normal 0.599025 -0.248124 0.761317
    outer loop
      vertex 18.8374 2.47999 18.75
      vertex 8.02973 -17.2198 20.8333
      vertex 11.5665 -15.0737 18.75
    endloop
  endfacet
  facet normal 0.531122 -0.371896 -0.761316
    outer loop
      vertex 18.8374 2.47999 18.75
      vertex 18.9277 -1.65596 20.8333
      vertex 8.02973 -17.2198 20.8333
    endloop
  endfacet
  facet normal 0.514396 0.394709 0.761316
    outer loop
      vertex 7.27099 17.5537 18.75
      vertex 18.9277 -1.65596 20.8333
      vertex 18.8374 2.47999 18.75
    endloop
  endfacet
  facet normal 0.587632 0.274016 -0.761317
    outer loop
      vertex 7.27099 17.5537 18.75
      vertex 10.898 15.5639 20.8333
      vertex 18.9277 -1.65596 20.8333
    endloop
  endfacet
  facet normal -0.0846308 0.642833 0.761317
    outer loop
      vertex -11.5665 15.0737 18.75
      vertex 10.898 15.5639 20.8333
      vertex 7.27099 17.5537 18.75
    endloop
  endfacet
  facet normal 0.0565099 0.645914 -0.761316
    outer loop
      vertex -11.5665 15.0737 18.75
      vertex -8.02973 17.2198 20.8333
      vertex 10.898 15.5639 20.8333
    endloop
  endfacet
  facet normal -0.599025 0.248124 0.761317
    outer loop
      vertex -18.8374 -2.48 18.75
      vertex -8.02973 17.2198 20.8333
      vertex -11.5665 15.0737 18.75
    endloop
  endfacet
  facet normal -0.531122 0.371896 -0.761317
    outer loop
      vertex -18.8374 -2.48 18.75
      vertex -18.9277 1.65595 20.8333
      vertex -8.02973 17.2198 20.8333
    endloop
  endfacet
  facet normal -0.514395 -0.394709 0.761316
    outer loop
      vertex -7.27099 -17.5537 18.75
      vertex -18.9277 1.65595 20.8333
      vertex -18.8374 -2.48 18.75
    endloop
  endfacet
  facet normal -0.587632 -0.274017 -0.761317
    outer loop
      vertex -7.27099 -17.5537 18.75
      vertex -10.898 -15.5639 20.8333
      vertex -18.9277 1.65595 20.8333
    endloop
  endfacet
  facet normal 0.088615 -0.673098 -0.734226
    outer loop
      vertex 6.69696 16.1679 18.75
      vertex 10.0376 14.3352 20.8333
      vertex -10.6533 13.8837 18.75
    endloop
  endfacet
  facet normal -0.0591705 -0.676322 0.734225
    outer loop
      vertex -7.39582 15.8604 20.8333
      vertex -10.6533 13.8837 18.75
      vertex 10.0376 14.3352 20.8333
    endloop
  endfacet
  facet normal -0.538613 -0.413291 -0.734225
    outer loop
      vertex 17.3503 2.2842 18.75
      vertex 17.4334 -1.52524 20.8333
      vertex 6.69696 16.1679 18.75
    endloop
  endfacet
  facet normal -0.615297 -0.286917 0.734226
    outer loop
      vertex 10.0376 14.3352 20.8333
      vertex 6.69696 16.1679 18.75
      vertex 17.4334 -1.52524 20.8333
    endloop
  endfacet
  facet normal -0.627227 0.259806 -0.734225
    outer loop
      vertex 10.6533 -13.8837 18.75
      vertex 7.39582 -15.8604 20.8333
      vertex 17.3503 2.2842 18.75
    endloop
  endfacet
  facet normal -0.556127 0.389405 0.734225
    outer loop
      vertex 17.4334 -1.52524 20.8333
      vertex 17.3503 2.2842 18.75
      vertex 7.39582 -15.8604 20.8333
    endloop
  endfacet
  facet normal -0.088615 0.673098 -0.734226
    outer loop
      vertex -6.69696 -16.1679 18.75
      vertex -10.0376 -14.3352 20.8333
      vertex 10.6533 -13.8837 18.75
    endloop
  endfacet
  facet normal 0.0591705 0.676322 0.734225
    outer loop
      vertex 7.39582 -15.8604 20.8333
      vertex 10.6533 -13.8837 18.75
      vertex -10.0376 -14.3352 20.8333
    endloop
  endfacet
  facet normal 0.538612 0.413292 -0.734225
    outer loop
      vertex -17.3503 -2.28421 18.75
      vertex -17.4334 1.52522 20.8333
      vertex -6.69696 -16.1679 18.75
    endloop
  endfacet
  facet normal 0.615298 0.286918 0.734226
    outer loop
      vertex -10.0376 -14.3352 20.8333
      vertex -6.69696 -16.1679 18.75
      vertex -17.4334 1.52522 20.8333
    endloop
  endfacet
  facet normal 0.627227 -0.259806 -0.734225
    outer loop
      vertex -10.6533 13.8837 18.75
      vertex -7.39582 15.8604 20.8333
      vertex -17.3503 -2.28421 18.75
    endloop
  endfacet
  facet normal 0.556127 -0.389404 0.734225
    outer loop
      vertex -17.4334 1.52522 20.8333
      vertex -17.3503 -2.28421 18.75
      vertex -7.39582 15.8604 20.8333
    endloop
  endfacet
  facet normal -0.0565098 -0.645913 0.761317
    outer loop
      vertex 8.02973 -17.2198 20.8333
      vertex -14.0083 -12.8362 22.9167
      vertex -10.898 -15.5639 20.8333
    endloop
  endfacet
  facet normal -0.194972 -0.618372 -0.761316
    outer loop
      vertex 8.02973 -17.2198 20.8333
      vertex 4.11234 -18.5496 22.9167
      vertex -14.0083 -12.8362 22.9167
    endloop
  endfacet
  facet normal 0.531122 -0.371896 0.761317
    outer loop
      vertex 18.9277 -1.65596 20.8333
      vertex 4.11234 -18.5496 22.9167
      vertex 8.02973 -17.2198 20.8333
    endloop
  endfacet
  facet normal 0.43804 -0.478036 -0.761316
    outer loop
      vertex 18.9277 -1.65596 20.8333
      vertex 18.1206 -5.71341 22.9167
      vertex 4.11234 -18.5496 22.9167
    endloop
  endfacet
  facet normal 0.587633 0.274017 0.761316
    outer loop
      vertex 10.898 15.5639 20.8333
      vertex 18.1206 -5.71341 22.9167
      vertex 18.9277 -1.65596 20.8333
    endloop
  endfacet
  facet normal 0.633011 0.140334 -0.761317
    outer loop
      vertex 10.898 15.5639 20.8333
      vertex 14.0083 12.8362 22.9167
      vertex 18.1206 -5.71341 22.9167
    endloop
  endfacet
  facet normal 0.0565098 0.645913 0.761317
    outer loop
      vertex -8.02973 17.2198 20.8333
      vertex 14.0083 12.8362 22.9167
      vertex 10.898 15.5639 20.8333
    endloop
  endfacet
  facet normal 0.194972 0.618372 -0.761316
    outer loop
      vertex -8.02973 17.2198 20.8333
      vertex -4.11234 18.5496 22.9167
      vertex 14.0083 12.8362 22.9167
    endloop
  endfacet
  facet normal -0.531122 0.371896 0.761317
    outer loop
      vertex -18.9277 1.65595 20.8333
      vertex -4.11234 18.5496 22.9167
      vertex -8.02973 17.2198 20.8333
    endloop
  endfacet
  facet normal -0.438039 0.478036 -0.761317
    outer loop
      vertex -18.9277 1.65595 20.8333
      vertex -18.1206 5.7134 22.9167
      vertex -4.11234 18.5496 22.9167
    endloop
  endfacet
  facet normal -0.587633 -0.274017 0.761316
    outer loop
      vertex -10.898 -15.5639 20.8333
      vertex -18.1206 5.7134 22.9167
      vertex -18.9277 1.65595 20.8333
    endloop
  endfacet
  facet normal -0.633011 -0.140335 -0.761317
    outer loop
      vertex -10.898 -15.5639 20.8333
      vertex -14.0083 -12.8362 22.9167
      vertex -18.1206 5.7134 22.9167
    endloop
  endfacet
  facet normal -0.0591705 -0.676322 -0.734226
    outer loop
      vertex 10.0376 14.3352 20.8333
      vertex 12.9024 11.8228 22.9167
      vertex -7.39582 15.8604 20.8333
    endloop
  endfacet
  facet normal -0.204151 -0.647484 0.734225
    outer loop
      vertex -3.78769 17.0852 22.9167
      vertex -7.39582 15.8604 20.8333
      vertex 12.9024 11.8228 22.9167
    endloop
  endfacet
  facet normal -0.615298 -0.286918 -0.734225
    outer loop
      vertex 17.4334 -1.52524 20.8333
      vertex 16.69 -5.26236 22.9167
      vertex 10.0376 14.3352 20.8333
    endloop
  endfacet
  facet normal -0.662813 -0.146941 0.734226
    outer loop
      vertex 12.9024 11.8228 22.9167
      vertex 10.0376 14.3352 20.8333
      vertex 16.69 -5.26236 22.9167
    endloop
  endfacet
  facet normal -0.556127 0.389404 -0.734225
    outer loop
      vertex 7.39582 -15.8604 20.8333
      vertex 3.78769 -17.0852 22.9167
      vertex 17.4334 -1.52524 20.8333
    endloop
  endfacet
  facet normal -0.458662 0.500542 0.734225
    outer loop
      vertex 16.69 -5.26236 22.9167
      vertex 17.4334 -1.52524 20.8333
      vertex 3.78769 -17.0852 22.9167
    endloop
  endfacet
  facet normal 0.0591705 0.676322 -0.734226
    outer loop
      vertex -10.0376 -14.3352 20.8333
      vertex -12.9024 -11.8228 22.9167
      vertex 7.39582 -15.8604 20.8333
    endloop
  endfacet
  facet normal 0.204151 0.647484 0.734225
    outer loop
      vertex 3.78769 -17.0852 22.9167
      vertex 7.39582 -15.8604 20.8333
      vertex -12.9024 -11.8228 22.9167
    endloop
  endfacet
  facet normal 0.615298 0.286918 -0.734225
    outer loop
      vertex -17.4334 1.52522 20.8333
      vertex -16.69 5.26235 22.9167
      vertex -10.0376 -14.3352 20.8333
    endloop
  endfacet
  facet normal 0.662813 0.146942 0.734226
    outer loop
      vertex -12.9024 -11.8228 22.9167
      vertex -10.0376 -14.3352 20.8333
      vertex -16.69 5.26235 22.9167
    endloop
  endfacet
  facet normal 0.556127 -0.389404 -0.734225
    outer loop
      vertex -7.39582 15.8604 20.8333
      vertex -3.78769 17.0852 22.9167
      vertex -17.4334 1.52522 20.8333
    endloop
  endfacet
  facet normal 0.458662 -0.500542 0.734225
    outer loop
      vertex -16.69 5.26235 22.9167
      vertex -17.4334 1.52522 20.8333
      vertex -3.78769 17.0852 22.9167
    endloop
  endfacet
  facet normal -0.194971 -0.618371 0.761317
    outer loop
      vertex 4.11234 -18.5496 22.9167
      vertex -16.4545 -9.5 25
      vertex -14.0083 -12.8362 22.9167
    endloop
  endfacet
  facet normal -0.32419 -0.561514 -0.761316
    outer loop
      vertex 4.11234 -18.5496 22.9167
      vertex -7.44923e-06 -19 25
      vertex -16.4545 -9.5 25
    endloop
  endfacet
  facet normal 0.438039 -0.478036 0.761317
    outer loop
      vertex 18.1206 -5.71341 22.9167
      vertex -7.44923e-06 -19 25
      vertex 4.11234 -18.5496 22.9167
    endloop
  endfacet
  facet normal 0.32419 -0.561514 -0.761316
    outer loop
      vertex 18.1206 -5.71341 22.9167
      vertex 16.4545 -9.49999 25
      vertex -7.44923e-06 -19 25
    endloop
  endfacet
  facet normal 0.633012 0.140335 0.761316
    outer loop
      vertex 14.0083 12.8362 22.9167
      vertex 16.4545 -9.49999 25
      vertex 18.1206 -5.71341 22.9167
    endloop
  endfacet
  facet normal 0.64838 -7.05155e-07 -0.761317
    outer loop
      vertex 14.0083 12.8362 22.9167
      vertex 16.4545 9.5 25
      vertex 16.4545 -9.49999 25
    endloop
  endfacet
  facet normal 0.194971 0.618371 0.761317
    outer loop
      vertex -4.11234 18.5496 22.9167
      vertex 16.4545 9.5 25
      vertex 14.0083 12.8362 22.9167
    endloop
  endfacet
  facet normal 0.32419 0.561514 -0.761316
    outer loop
      vertex -4.11234 18.5496 22.9167
      vertex 7.44923e-06 19 25
      vertex 16.4545 9.5 25
    endloop
  endfacet
  facet normal -0.438039 0.478036 0.761317
    outer loop
      vertex -18.1206 5.7134 22.9167
      vertex 7.44923e-06 19 25
      vertex -4.11234 18.5496 22.9167
    endloop
  endfacet
  facet normal -0.32419 0.561514 -0.761317
    outer loop
      vertex -18.1206 5.7134 22.9167
      vertex -16.4545 9.49999 25
      vertex 7.44923e-06 19 25
    endloop
  endfacet
  facet normal -0.633012 -0.140335 0.761316
    outer loop
      vertex -14.0083 -12.8362 22.9167
      vertex -16.4545 9.49999 25
      vertex -18.1206 5.7134 22.9167
    endloop
  endfacet
  facet normal -0.64838 2.54207e-07 -0.761317
    outer loop
      vertex -14.0083 -12.8362 22.9167
      vertex -16.4545 -9.5 25
      vertex -16.4545 9.49999 25
    endloop
  endfacet
  facet normal -0.204151 -0.647484 -0.734226
    outer loop
      vertex 12.9024 11.8228 22.9167
      vertex 15.1554 8.75 25
      vertex -3.78769 17.0852 22.9167
    endloop
  endfacet
  facet normal -0.339453 -0.58795 0.734225
    outer loop
      vertex 1.64102e-06 17.5 25
      vertex -3.78769 17.0852 22.9167
      vertex 15.1554 8.75 25
    endloop
  endfacet
  facet normal -0.662813 -0.146942 -0.734225
    outer loop
      vertex 16.69 -5.26236 22.9167
      vertex 15.1554 -8.75 25
      vertex 12.9024 11.8228 22.9167
    endloop
  endfacet
  facet normal -0.678905 5.76314e-07 0.734226
    outer loop
      vertex 15.1554 8.75 25
      vertex 12.9024 11.8228 22.9167
      vertex 15.1554 -8.75 25
    endloop
  endfacet
  facet normal -0.458662 0.500542 -0.734225
    outer loop
      vertex 3.78769 -17.0852 22.9167
      vertex -1.64102e-06 -17.5 25
      vertex 16.69 -5.26236 22.9167
    endloop
  endfacet
  facet normal -0.339453 0.58795 0.734225
    outer loop
      vertex 15.1554 -8.75 25
      vertex 16.69 -5.26236 22.9167
      vertex -1.64102e-06 -17.5 25
    endloop
  endfacet
  facet normal 0.204151 0.647484 -0.734226
    outer loop
      vertex -12.9024 -11.8228 22.9167
      vertex -15.1554 -8.75 25
      vertex 3.78769 -17.0852 22.9167
    endloop
  endfacet
  facet normal 0.339453 0.58795 0.734225
    outer loop
      vertex -1.64102e-06 -17.5 25
      vertex 3.78769 -17.0852 22.9167
      vertex -15.1554 -8.75 25
    endloop
  endfacet
  facet normal 0.662813 0.146942 -0.734225
    outer loop
      vertex -16.69 5.26235 22.9167
      vertex -15.1554 8.75 25
      vertex -12.9024 -11.8228 22.9167
    endloop
  endfacet
  facet normal 0.678906 -6.36629e-08 0.734226
    outer loop
      vertex -15.1554 -8.75 25
      vertex -12.9024 -11.8228 22.9167
      vertex -15.1554 8.75 25
    endloop
  endfacet
  facet normal 0.458662 -0.500542 -0.734225
    outer loop
      vertex -3.78769 17.0852 22.9167
      vertex 1.64102e-06 17.5 25
      vertex -16.69 5.26235 22.9167
    endloop
  endfacet
  facet normal 0.339453 -0.58795 0.734225
    outer loop
      vertex -15.1554 8.75 25
      vertex -16.69 5.26235 22.9167
      vertex 1.64102e-06 17.5 25
    endloop
  endfacet
endsolid OpenSCAD_Model
